<svg width="80" height="72" viewBox="0 0 80 72" fill="none" xmlns="http://www.w3.org/2000/svg">
<path d="M63.888 67.2675C57.8762 67.2675 52.9842 62.355 52.9842 56.311C52.9842 52.7955 54.6488 49.6698 57.219 47.6642L62.5216 57.0888C62.8094 57.6028 63.3425 57.8887 63.8896 57.8887C64.1501 57.8887 64.4167 57.8225 64.6612 57.6843C65.416 57.2558 65.6802 56.2942 65.2544 55.5347L59.9518 46.1069C61.1724 45.6279 62.4972 45.3548 63.888 45.3548C69.899 45.3548 74.7909 50.2699 74.7909 56.311C74.7909 62.355 69.899 67.2675 63.888 67.2675ZM42.8041 48.9085L44.5402 40.9257C44.5458 40.8967 44.5434 40.8661 44.5499 40.8336C44.5719 40.7201 44.5815 40.6019 44.5899 40.4865C44.5975 40.3924 44.6071 40.2983 44.6047 40.2029C44.6027 40.1016 44.5899 40.001 44.5795 39.8993C44.5671 39.7939 44.5575 39.6902 44.5362 39.5892C44.5154 39.4967 44.4858 39.4062 44.4578 39.3153C44.4246 39.2136 44.3962 39.113 44.3537 39.0157C44.3161 38.926 44.2661 38.8396 44.2193 38.7519C44.1704 38.6614 44.1236 38.5729 44.0688 38.4893C44.0123 38.4064 43.9463 38.3284 43.8819 38.2516C43.8162 38.1707 43.7518 38.0899 43.677 38.0163C43.6097 37.9491 43.5385 37.8924 43.4656 37.8329C43.3756 37.7577 43.2855 37.6849 43.1887 37.6214C43.1619 37.6029 43.1419 37.5803 43.115 37.563L33.4948 31.6353L39.5242 23.7185L39.5102 27.2564C39.5038 28.7256 40.5112 30.0077 41.9364 30.3407L53.4016 33.0305V39.738L42.8041 48.9085ZM16.114 67.2675C10.1012 67.2675 5.20938 62.355 5.20938 56.311C5.20938 50.2699 10.1012 45.3548 16.114 45.3548C17.4862 45.3548 18.7963 45.6223 20.0068 46.0896L14.7444 55.5424C14.4704 56.0335 14.4771 56.6343 14.7632 57.1177C15.0465 57.5959 15.5593 57.8887 16.114 57.8887H16.1299L26.9087 57.7722C26.1963 63.1243 21.6337 67.2675 16.114 67.2675ZM26.8695 54.5965L18.8077 54.7051L22.7459 47.6364C24.9076 49.3062 26.4236 51.7724 26.8695 54.5965ZM27.5867 38.9393L35.5023 52.9226L35.1633 54.4826L31.6181 54.531C31.1018 49.9634 28.6273 45.9927 25.0624 43.4751L27.5867 38.9393ZM36.5065 48.3125L30.0581 36.9232L37.9289 41.7698L36.5065 48.3125ZM63.888 40.6236C61.6551 40.6236 59.5367 41.103 57.616 41.9556L56.5422 40.0473V33.3482C57.5988 33.043 58.4681 32.1972 58.7359 31.0441C59.1297 29.3465 58.0795 27.651 56.3909 27.2532L45.8006 24.7669L45.843 14.2283C45.8454 13.9109 45.7849 13.6085 45.6981 13.3193C49.3237 13.2751 52.2506 10.3159 52.2506 6.66248C52.2506 2.98255 49.2809 0 45.6205 0C41.9584 0 38.9883 2.98255 38.9883 6.66248C38.9883 7.85976 39.3281 8.96536 39.8768 9.9338C38.6913 10.1003 37.5671 10.7112 36.7831 11.7428L24.2388 28.216C22.6595 30.2929 23.0529 33.2617 25.1177 34.8512C25.389 35.0599 25.6824 35.224 25.9814 35.3635L22.3265 41.9279C20.4206 41.0914 18.321 40.6236 16.114 40.6236C7.50472 40.6236 0.5 47.6621 0.5 56.311C0.5 64.9622 7.50472 72 16.114 72C24.25 72 30.9454 65.7106 31.655 57.7194L35.528 57.6752C35.965 58.2925 36.6142 58.7622 37.4078 58.936C37.6343 58.9852 37.8593 59.006 38.0822 59.006C39.5242 59.006 40.8245 58.0021 41.1459 56.527L41.687 54.0351L54.5471 42.912L54.8853 43.5165C50.8946 46.3595 48.2752 51.0316 48.2752 56.311C48.2752 64.9622 55.2791 72 63.888 72C72.4972 72 79.5 64.9622 79.5 56.311C79.5 47.6621 72.4972 40.6236 63.888 40.6236Z" fill="#E1216D"/>
</svg>
