<svg fill="none" xmlns="http://www.w3.org/2000/svg" viewBox="47.8 1 40.2 31.78">
<path d="M69.9083 1.02795C62.6879 0.968796 56.0502 5.33203 53.0131 11.1294L47.8279 10.6271L51.9346 13.7123C51.5156 15.0411 51.2851 16.4168 51.2736 17.8092C51.2182 24.5725 57.4941 29.7602 64.8756 31.8137C64.8756 31.8137 66.0359 32.1821 66.252 32.2235C66.468 32.265 67.5085 32.4033 67.5085 32.4033C68.858 32.6343 70.2225 32.7636 71.574 32.7748C81.394 32.8549 87.9276 24.1681 87.9994 15.4062C88.0723 6.64429 79.7278 1.10841 69.9083 1.02795Z" fill="#80CC28"/>
<path d="M61.5381 14.046C61.5297 13.9516 61.5205 13.852 61.5115 13.7479C61.5023 13.6436 61.4839 13.5524 61.4574 13.4736C61.4311 13.3947 61.391 13.3315 61.3376 13.2837C61.2846 13.2361 61.2047 13.2167 61.0982 13.2262C60.953 13.2392 60.8563 13.2526 60.8087 13.2662C60.7608 13.2801 60.7414 13.3343 60.7501 13.4289L60.8986 15.0906C60.9073 15.1855 60.9236 15.2367 60.9491 15.2437C60.9737 15.2512 61.083 15.2461 61.2775 15.229C61.4323 15.2153 61.5282 15.1636 61.5639 15.0747C61.6001 14.9856 61.6085 14.8322 61.589 14.6143L61.5381 14.046ZM61.1395 10.2303C61.1309 10.136 61.1221 10.0364 61.1129 9.93206C61.1034 9.82794 61.0855 9.73656 61.0588 9.65766C61.0318 9.57925 60.992 9.51573 60.9391 9.46793C60.8857 9.42038 60.8058 9.40092 60.6989 9.41041C60.5725 9.4217 60.4905 9.43395 60.4528 9.44668C60.4144 9.45965 60.3997 9.51357 60.4082 9.60795L60.5482 11.1705C60.5565 11.2654 60.5855 11.3154 60.6348 11.3204C60.6842 11.3255 60.762 11.3232 60.8691 11.3137C61.0342 11.2992 61.1309 11.231 61.1591 11.1091C61.1873 10.9874 61.1984 10.8885 61.1917 10.8126L61.1395 10.2303ZM63.2123 16.5174C62.794 16.9651 62.2103 17.222 61.4617 17.2885L59.4006 17.4714C59.2961 17.4807 59.2155 17.4855 59.1581 17.4858C59.1007 17.4862 59.0567 17.4757 59.0263 17.4546C58.9956 17.4335 58.9756 17.3947 58.9656 17.3381C58.9557 17.2819 58.946 17.1969 58.9358 17.0832L58.1229 7.99282C58.1135 7.88859 58.1085 7.80789 58.1084 7.75061C58.1078 7.69333 58.1207 7.64938 58.1465 7.61852C58.1727 7.58742 58.2136 7.56736 58.27 7.55752C58.3266 7.54767 58.4068 7.53806 58.5111 7.52881L60.5156 7.35085C61.264 7.28432 61.8841 7.43479 62.3753 7.80141C62.8668 8.16826 63.1453 8.72089 63.2111 9.45941L63.313 10.5958C63.3417 10.9177 63.3091 11.1713 63.216 11.356C63.1222 11.5409 63.0124 11.6819 62.8872 11.7788C62.7615 11.876 62.6453 11.9412 62.5382 11.9746C62.431 12.008 62.3784 12.0341 62.38 12.0529C62.3817 12.0721 62.4405 12.086 62.5562 12.0945C62.6719 12.1035 62.8044 12.1394 62.9539 12.2024C63.103 12.2657 63.2422 12.3751 63.3712 12.5304C63.5 12.6861 63.5779 12.9154 63.605 13.2184L63.741 14.7382C63.807 15.4767 63.6308 16.07 63.2123 16.5174Z" fill="white"/>
<path d="M66.9831 16.6909C66.972 16.7253 66.9319 16.7526 66.8622 16.7733C66.7926 16.7937 66.6849 16.8128 66.5393 16.8305C66.3934 16.8482 66.1834 16.8692 65.9097 16.8935C65.6548 16.916 65.4587 16.9313 65.3211 16.9386C65.1839 16.9461 65.0817 16.9456 65.0144 16.9371C64.9468 16.9289 64.907 16.9109 64.8951 16.8833C64.8832 16.8559 64.8752 16.8184 64.8712 16.7711L64.0253 7.31123C64.0192 7.24506 64.0213 7.19474 64.0329 7.16004C64.0441 7.12581 64.0798 7.0988 64.1398 7.07898C64.2 7.05953 64.2981 7.0414 64.4346 7.02435C64.571 7.00741 64.7668 6.98772 65.0217 6.9649C65.2951 6.94064 65.508 6.92431 65.6595 6.91555C65.8111 6.90702 65.9232 6.90894 65.9956 6.92155C66.0683 6.93428 66.1105 6.95674 66.1229 6.98892C66.1352 7.02134 66.1447 7.0707 66.1508 7.13674L66.9926 16.5541C66.9978 16.6108 66.9947 16.6565 66.9831 16.6909Z" fill="white"/>
<path d="M73.8903 16.0778C73.8827 16.1023 73.8488 16.1245 73.7884 16.1441C73.7279 16.1638 73.6246 16.1851 73.4778 16.2075C73.3314 16.2302 73.125 16.253 72.8589 16.2768C72.612 16.2988 72.4123 16.3164 72.2604 16.3299C72.118 16.3425 72.0055 16.3478 71.9242 16.3454C71.8424 16.3433 71.7864 16.329 71.7549 16.3031C71.7239 16.2773 71.7013 16.2365 71.6866 16.1804C71.5576 15.8103 71.4383 15.4676 71.329 15.1528C71.2193 14.8381 71.1098 14.5279 71.0016 14.2227C70.8927 13.9173 70.7861 13.6096 70.682 13.299C70.5774 12.9885 70.46 12.6437 70.3308 12.2635C70.3053 12.199 70.2699 12.1759 70.2237 12.1942C70.1772 12.2127 70.12 12.3205 70.0515 12.5173C69.991 12.7041 69.9711 12.9063 69.9906 13.1241L70.2703 16.249C70.2754 16.3058 70.244 16.3539 70.176 16.3932C70.108 16.4329 70.0209 16.4668 69.914 16.4952C69.807 16.5241 69.6925 16.5462 69.5699 16.5617C69.4478 16.5773 69.3349 16.5896 69.2311 16.5989C69.1365 16.6072 69.0278 16.6146 68.9046 16.6206C68.7812 16.6269 68.6646 16.6276 68.5553 16.6231C68.4451 16.6185 68.3509 16.6032 68.2727 16.5767C68.1942 16.5501 68.1529 16.5134 68.1484 16.4659L67.2989 6.96357C67.2946 6.91613 67.3316 6.87711 67.4094 6.84624C67.4874 6.81562 67.5829 6.78812 67.6951 6.76363C67.8068 6.73949 67.9213 6.71992 68.0391 6.70455C68.1568 6.68942 68.2534 6.67825 68.3289 6.67164C68.4137 6.66408 68.5176 6.65483 68.6404 6.6439C68.763 6.63297 68.8814 6.62973 68.9963 6.63382C69.1109 6.6379 69.2095 6.65063 69.2923 6.672C69.375 6.69314 69.4191 6.73241 69.4243 6.78909L69.7317 10.2265C69.7361 10.2739 69.7418 10.3401 69.7493 10.4252C69.756 10.5011 69.7822 10.5274 69.8284 10.5041C69.8462 10.4933 69.8597 10.4562 69.8685 10.3932C69.8773 10.3305 69.8889 10.2748 69.904 10.2255C69.9685 9.87621 70.0288 9.56087 70.085 9.27879C70.1413 8.99719 70.1931 8.72064 70.2409 8.44889C70.2886 8.17762 70.3379 7.89878 70.3887 7.61274C70.4397 7.32658 70.5022 7.00836 70.5765 6.65831C70.5825 6.61977 70.5964 6.58975 70.6186 6.56849C70.6405 6.54748 70.687 6.52922 70.7575 6.51325C70.8279 6.49764 70.9297 6.48371 71.0625 6.47194C71.2053 6.45933 71.3998 6.44204 71.6472 6.42019C71.9038 6.39737 72.1085 6.38152 72.2608 6.37276C72.4131 6.36411 72.5281 6.36315 72.6057 6.37083C72.6827 6.37816 72.7341 6.39052 72.7595 6.40697C72.785 6.42415 72.7937 6.4424 72.7862 6.4621C72.6868 6.85273 72.5997 7.1898 72.5245 7.4732C72.4494 7.75684 72.3778 8.02799 72.3102 8.28666C72.2417 8.5458 72.1678 8.8125 72.0866 9.08677C72.0058 9.36141 71.9109 9.6896 71.8011 10.0713C71.7796 10.1498 71.7557 10.2308 71.7295 10.3139C71.7032 10.3975 71.694 10.4771 71.7009 10.5526C71.7068 10.619 71.7187 10.6752 71.7374 10.7212C71.7557 10.7675 71.8019 10.878 71.8746 11.0528C72.0691 11.5128 72.2429 11.934 72.3972 12.3163C72.5512 12.6989 72.7047 13.0789 72.8581 13.4564C73.0121 13.8343 73.1693 14.2284 73.3307 14.6386C73.4917 15.0491 73.6766 15.5078 73.8847 16.014C73.8958 16.0322 73.8977 16.0535 73.8903 16.0778Z" fill="white"/>
<path d="M78.7432 15.3101C78.7511 15.4527 78.7527 15.5552 78.7487 15.6175C78.7451 15.6799 78.7316 15.719 78.7093 15.7355C78.6867 15.7518 78.6565 15.7616 78.6186 15.765L75.2783 16.0615C75.1645 16.0715 75.054 16.0837 74.9462 16.0981C74.8376 16.1124 74.7581 16.0984 74.7067 16.055C74.6459 16.0127 74.6113 15.9442 74.603 15.8496C74.5943 15.755 74.5862 15.6649 74.5787 15.5796L73.7758 6.60271C73.7673 6.50821 73.7666 6.44624 73.7732 6.41682C73.7801 6.38764 73.8047 6.34261 73.847 6.28149C73.8891 6.22048 73.9332 6.18337 73.9797 6.16956C74.0262 6.15612 74.0871 6.14579 74.1627 6.13895L77.7007 5.82493C77.7389 5.82144 77.7703 5.82589 77.7953 5.83801C77.8204 5.85002 77.8427 5.88377 77.8617 5.93925C77.8813 5.99485 77.8965 6.08455 77.9075 6.20751C77.9183 6.33048 77.9338 6.50088 77.9533 6.71871C77.9759 6.97449 77.9943 7.17816 78.0078 7.32946C78.0205 7.47164 78.0229 7.57864 78.0149 7.65093C78.007 7.72322 77.9918 7.76753 77.9696 7.78386C77.947 7.80019 77.9119 7.81051 77.8646 7.81472L76.4388 7.94129C76.3819 7.94621 76.3179 7.95678 76.2475 7.97251C76.1771 7.98836 76.1338 8.01118 76.1174 8.04132C76.0836 8.09223 76.0649 8.12718 76.0622 8.14639C76.0589 8.16597 76.0618 8.22301 76.0701 8.31751L76.1627 9.35444C76.1687 9.42085 76.1747 9.48701 76.1808 9.5533C76.1867 9.61971 76.2201 9.67386 76.2813 9.71613C76.3323 9.74988 76.3816 9.7644 76.4292 9.76032C76.4862 9.75516 76.5431 9.75011 76.6002 9.74507L77.2986 9.68311C77.3365 9.67963 77.3682 9.68419 77.3933 9.69608C77.418 9.70833 77.4382 9.74711 77.4538 9.81256C77.4692 9.87789 77.4835 9.98164 77.4959 10.1237C77.5079 10.2563 77.5245 10.4411 77.5456 10.6776C77.566 10.9048 77.5822 11.0847 77.5941 11.2174C77.6049 11.3405 77.6113 11.4354 77.6125 11.502C77.6133 11.5689 77.6025 11.6103 77.5802 11.6267C77.558 11.6429 77.5226 11.6532 77.4752 11.6574L76.8338 11.7145C76.7574 11.7212 76.6866 11.7298 76.6206 11.7404C76.554 11.7512 76.508 11.7672 76.481 11.7885C76.4189 11.842 76.3907 11.9018 76.3966 11.9678C76.4027 12.0341 76.4098 12.1148 76.4182 12.2093L76.5235 13.3883C76.5323 13.4831 76.5434 13.5848 76.5581 13.693C76.5725 13.8016 76.5995 13.8636 76.6392 13.8791C76.679 13.8947 76.7423 13.9035 76.8286 13.9053C76.9149 13.9072 76.996 13.9047 77.0719 13.8979L78.4267 13.7777C78.4644 13.7744 78.4985 13.7785 78.5279 13.7902C78.5578 13.8018 78.5801 13.8381 78.5951 13.8988C78.6099 13.9595 78.6259 14.0535 78.6422 14.181C78.6584 14.3084 78.6767 14.4856 78.697 14.7128C78.7196 14.9686 78.7352 15.1677 78.7432 15.3101Z" fill="white"/>
<path d="M62.0168 24.0609C61.9918 23.8868 61.9644 23.7126 61.9342 23.5386C61.9044 23.3647 61.8734 23.1766 61.8406 22.9743C61.8081 22.7719 61.7695 22.5295 61.7253 22.2472C61.7238 22.2282 61.7174 22.1858 61.7067 22.1199C61.6959 22.0542 61.6804 21.9862 61.6597 21.9166C61.6395 21.8467 61.6191 21.7843 61.6001 21.7287C61.5806 21.6731 61.5568 21.6465 61.5282 21.649C61.5089 21.6506 61.4931 21.6858 61.48 21.7536C61.4669 21.8216 61.4593 21.8963 61.457 21.9775C61.4545 22.0589 61.4545 22.1378 61.4565 22.2137C61.4584 22.29 61.4601 22.3328 61.4608 22.3423C61.4645 22.5996 61.4705 22.8259 61.4783 23.0206C61.4864 23.2157 61.4907 23.399 61.4919 23.5706C61.4928 23.7423 61.4934 23.9141 61.4947 24.0858C61.4959 24.2576 61.5011 24.4528 61.511 24.6713C61.5162 24.7281 61.5333 24.7602 61.5627 24.7669C61.5921 24.774 61.6685 24.7719 61.7922 24.7609C61.8968 24.7518 61.9753 24.7472 62.028 24.7472C62.0806 24.7475 62.1036 24.7095 62.0967 24.6336C62.0687 24.4265 62.0419 24.2354 62.0168 24.0609ZM64.7222 28.037C64.643 28.0633 64.5444 28.0864 64.4262 28.1062C64.3082 28.1264 64.1828 28.1422 64.0495 28.154C63.9163 28.1659 63.8027 28.1759 63.7076 28.1843C63.4983 28.2029 63.2988 28.2184 63.1082 28.2304C62.9178 28.2426 62.8084 28.1976 62.7801 28.0948C62.7336 27.8986 62.6942 27.7257 62.662 27.5757C62.629 27.4262 62.5944 27.281 62.5581 27.141C62.5216 27.0012 62.487 26.8562 62.4547 26.7064C62.4223 26.5568 62.3828 26.3835 62.3363 26.1871C62.32 26.1123 62.2786 26.078 62.2121 26.0837C62.1553 26.0887 62.0699 26.0964 61.9556 26.1067C61.8224 26.1182 61.7178 26.1277 61.6419 26.1344C61.5755 26.1402 61.5404 26.1815 61.5381 26.2581C61.5364 26.4586 61.5336 26.6358 61.5282 26.7888C61.5226 26.9419 61.5189 27.0902 61.5174 27.2334C61.5162 27.3767 61.515 27.5269 61.5146 27.6847C61.5141 27.8421 61.5141 28.0261 61.5138 28.236C61.511 28.3126 61.4079 28.3647 61.2044 28.3922C61.0008 28.42 60.7852 28.4439 60.5569 28.4642C60.5 28.469 60.4144 28.4767 60.3004 28.487C60.1863 28.497 60.0718 28.5024 59.957 28.5028C59.8422 28.5037 59.7409 28.4985 59.6539 28.487C59.5665 28.4756 59.5217 28.4558 59.5193 28.4273C59.5873 27.4764 59.6513 26.6095 59.7104 25.8262C59.7699 25.0432 59.8235 24.2771 59.8716 23.5284C59.9194 22.7798 59.9682 22.0166 60.0187 21.2389C60.0689 20.4616 60.1194 19.6077 60.1704 18.6772C60.1756 18.6292 60.2173 18.5871 60.2956 18.5516C60.3735 18.5159 60.4694 18.486 60.5823 18.4616C60.6949 18.4373 60.8127 18.4176 60.9363 18.4017C61.0593 18.3861 61.1586 18.3747 61.2346 18.368C61.3206 18.3604 61.4224 18.3537 61.5421 18.3479C61.6614 18.3422 61.7735 18.3417 61.8797 18.3465C61.9851 18.3514 62.0777 18.3695 62.1572 18.4005C62.2368 18.4319 62.2838 18.4752 62.298 18.5313C62.5316 19.4268 62.7467 20.2501 62.9432 21.0009C63.1397 21.752 63.3349 22.4885 63.5286 23.2109C63.7228 23.9335 63.9232 24.6746 64.1299 25.4339C64.3367 26.1934 64.5669 27.0296 64.8212 27.9424C64.8339 27.9794 64.8009 28.011 64.7222 28.037Z" fill="white"/>
<path d="M70.9757 27.4315C70.9738 27.4653 70.9403 27.4918 70.8751 27.5121C70.8099 27.5322 70.7065 27.551 70.564 27.5683C70.4222 27.5859 70.2129 27.6067 69.9373 27.6312C69.6712 27.6548 69.4927 27.6658 69.4017 27.6644C69.3105 27.6631 69.2357 27.6028 69.1772 27.4838C69.0107 27.1264 68.873 26.8142 68.7629 26.5471C68.6527 26.2802 68.5453 26.0178 68.4407 25.7597C68.3366 25.5018 68.2251 25.2206 68.1071 24.916C67.9885 24.6115 67.8425 24.2379 67.6687 23.7954C67.6199 23.6756 67.5625 23.5447 67.4973 23.4025C67.4321 23.2605 67.3708 23.1919 67.3139 23.1969C67.2471 23.2028 67.2217 23.2908 67.2369 23.4614C67.2511 23.6225 67.2646 23.774 67.2774 23.916L67.6067 27.5946C67.6115 27.6515 67.6083 27.6973 67.5971 27.7314C67.5859 27.7661 67.5449 27.7935 67.475 27.814C67.405 27.8344 67.2965 27.8538 67.1497 27.8715C67.0025 27.8894 66.7913 27.9106 66.5161 27.9349C66.2595 27.9576 66.0643 27.9729 65.9307 27.9796C65.7974 27.9869 65.7016 27.9857 65.6432 27.9766C65.5852 27.9674 65.552 27.9489 65.5449 27.9209C65.5373 27.8929 65.5318 27.8553 65.5275 27.8078L64.6816 18.3481C64.6756 18.2818 64.6735 18.232 64.6756 18.1984C64.677 18.1649 64.7058 18.1383 64.7619 18.1191C64.8176 18.0999 64.9114 18.082 65.0441 18.0653C65.1766 18.049 65.3715 18.0292 65.6281 18.0064C65.8277 17.9887 65.9868 17.9772 66.1061 17.9712C66.2254 17.9654 66.3165 17.9693 66.3805 17.9825C66.4438 17.996 66.4891 18.0183 66.5158 18.0494C66.5424 18.0806 66.5683 18.1283 66.5933 18.1927C66.6439 18.3314 66.7245 18.5391 66.8355 18.8156C66.9465 19.0919 67.0697 19.3985 67.2054 19.7347C67.3407 20.0712 67.4846 20.421 67.6369 20.7845C67.7889 21.148 67.9312 21.4814 68.0637 21.7846C68.0895 21.8587 68.1232 21.9393 68.1642 22.0261C68.2057 22.1131 68.2501 22.1546 68.2979 22.1504C68.3643 22.1444 68.3933 22.0701 68.3859 21.9277C68.3775 21.7852 68.3691 21.6621 68.3596 21.5577L68.0462 18.0495C68.0402 17.9833 68.0425 17.9329 68.0541 17.8984C68.0656 17.8641 68.1011 17.8371 68.1619 17.8172C68.2224 17.7975 68.321 17.7793 68.4585 17.7622C68.5958 17.7456 68.7931 17.7254 69.0496 17.7026C69.3252 17.6783 69.5368 17.662 69.6847 17.6535C69.8323 17.6453 69.9376 17.6477 70.0013 17.6611C70.0646 17.6748 70.1003 17.6978 70.1083 17.7304C70.1158 17.7633 70.1226 17.8127 70.1286 17.8787L70.9709 27.2961C70.9757 27.3528 70.9777 27.3982 70.9757 27.4315Z" fill="white"/>
<path d="M75.8079 26.4944C75.4226 26.939 74.8558 27.1945 74.1074 27.2611C73.7469 27.293 73.4152 27.2677 73.1118 27.1847C72.8083 27.1021 72.5435 26.9681 72.3168 26.783C72.0901 26.598 71.9068 26.3661 71.7672 26.0871C71.6279 25.8085 71.5425 25.494 71.5111 25.1435L71.4589 24.5612C71.4498 24.4572 71.4451 24.3763 71.4446 24.319C71.4442 24.2618 71.4713 24.2166 71.525 24.1831C71.579 24.1497 71.6718 24.1248 71.8033 24.1083C71.9354 24.0919 72.1283 24.0722 72.3832 24.0498C72.6377 24.027 72.8315 24.0148 72.9647 24.0123C73.0976 24.0101 73.1938 24.0207 73.2526 24.044C73.3119 24.0673 73.346 24.1073 73.3564 24.1639C73.3659 24.2202 73.3751 24.2957 73.3835 24.3902C73.4013 24.5893 73.4475 24.7784 73.5219 24.9578C73.5962 25.1375 73.7304 25.2187 73.9231 25.2014C74.0293 25.1921 74.1114 25.1586 74.1693 25.1009C74.2274 25.0432 74.2677 24.9729 74.2894 24.8899C74.3109 24.8068 74.322 24.715 74.3229 24.6148C74.3237 24.5145 74.3196 24.4123 74.3101 24.3081C74.2867 24.0432 74.2589 23.7353 74.2279 23.3847C74.1956 23.0252 74.1619 22.6462 74.1261 22.2485C74.0898 21.8414 74.0529 21.4295 74.0154 21.0127C73.9773 20.5867 73.9407 20.1748 73.9052 19.7772C73.8686 19.37 73.8349 18.9912 73.8034 18.6408C73.7713 18.2811 73.7434 17.9685 73.7195 17.7032C73.7112 17.6088 73.7112 17.5323 73.7204 17.4742C73.7299 17.4161 73.7636 17.37 73.8221 17.3361C73.8807 17.3025 73.9713 17.2753 74.093 17.2551C74.2146 17.2349 74.3794 17.2152 74.5869 17.1968C74.8515 17.1734 75.0542 17.1578 75.1962 17.1499C75.3383 17.1422 75.4409 17.1495 75.5049 17.1724C75.5685 17.1956 75.6055 17.2351 75.6154 17.2916C75.6253 17.3481 75.6349 17.4285 75.6441 17.5326L76.2868 24.7196C76.3529 25.4582 76.1933 26.0499 75.8079 26.4944Z" fill="white"/>
<path d="M79.7008 22.7271C79.6714 22.3958 79.6424 22.0738 79.6145 21.7614C79.5867 21.4488 79.5577 21.1269 79.5281 20.7954C79.4984 20.4642 79.4658 20.0995 79.4304 19.7017C79.4219 19.6073 79.4129 19.5079 79.4037 19.4035C79.3946 19.2994 79.3764 19.208 79.3496 19.1291C79.323 19.0506 79.2837 18.9872 79.2304 18.9393C79.177 18.8916 79.0971 18.8722 78.9905 18.8817C78.884 18.8912 78.8064 18.9246 78.7575 18.9812C78.7089 19.0381 78.6787 19.1077 78.6664 19.1899C78.6544 19.2719 78.6553 19.3651 78.6695 19.4687C78.6835 19.5726 78.6949 19.6718 78.7034 19.7663L79.0717 23.8854C79.0812 23.9895 79.0876 24.0916 79.0919 24.1915C79.0959 24.2914 79.1113 24.3806 79.1376 24.4594C79.1644 24.5382 79.2064 24.6012 79.2645 24.6484C79.3226 24.6959 79.4049 24.7148 79.5116 24.7053C79.618 24.6959 79.6932 24.6631 79.737 24.6066C79.7807 24.5503 79.8089 24.481 79.8209 24.3988C79.8333 24.3166 79.8352 24.228 79.8269 24.1333C79.8174 24.0293 79.8082 23.9251 79.7986 23.8209C79.7632 23.4231 79.7306 23.0587 79.7008 22.7271ZM81.4464 25.9938C81.0281 26.4415 80.4446 26.6985 79.6957 26.7648C79.3354 26.7968 78.9989 26.772 78.6859 26.69C78.3729 26.6081 78.096 26.4753 77.855 26.2913C77.614 26.1074 77.4192 25.8768 77.2701 25.5988C77.1213 25.3209 77.0311 25.0067 76.9996 24.6563L76.5271 19.3724C76.4957 19.0225 76.5287 18.6973 76.6261 18.3973C76.7236 18.0977 76.8743 17.8363 77.0791 17.6127C77.2834 17.3894 77.5326 17.2099 77.8259 17.074C78.1195 16.9382 78.4465 16.8542 78.8064 16.8222C79.5552 16.7558 80.1752 16.9061 80.6665 17.2727C81.1576 17.6396 81.4364 18.1923 81.5025 18.9308L81.9749 24.2147C82.041 24.9532 81.8648 25.5465 81.4464 25.9938Z" fill="white"/>
</svg>