<svg width="24" height="24" viewBox="0 0 24 24" fill="none" xmlns="http://www.w3.org/2000/svg">
<mask id="mask0_4183_32789" style="mask-type:alpha" maskUnits="userSpaceOnUse" x="0" y="0" width="24" height="24">
<rect width="24" height="24" fill="#D9D9D9"/>
</mask>
<g mask="url(#mask0_4183_32789)">
<path d="M4 22C3.45 22 2.97917 21.8042 2.5875 21.4125C2.19583 21.0209 2 20.55 2 20V8.00003C2 7.58336 2.1125 7.20836 2.3375 6.87503C2.5625 6.54169 2.86667 6.30003 3.25 6.15003L15.075 1.32503C15.3083 1.24169 15.5375 1.24586 15.7625 1.33753C15.9875 1.42919 16.1417 1.59169 16.225 1.82503C16.3083 2.05836 16.3042 2.28753 16.2125 2.51253C16.1208 2.73753 15.9583 2.89169 15.725 2.97503L8.3 6.00003H20C20.55 6.00003 21.0208 6.19586 21.4125 6.58753C21.8042 6.97919 22 7.45003 22 8.00003V20C22 20.55 21.8042 21.0209 21.4125 21.4125C21.0208 21.8042 20.55 22 20 22H4ZM4 20H20V13H4V20ZM8 19C8.7 19 9.29167 18.7584 9.775 18.275C10.2583 17.7917 10.5 17.2 10.5 16.5C10.5 15.8 10.2583 15.2084 9.775 14.725C9.29167 14.2417 8.7 14 8 14C7.3 14 6.70833 14.2417 6.225 14.725C5.74167 15.2084 5.5 15.8 5.5 16.5C5.5 17.2 5.74167 17.7917 6.225 18.275C6.70833 18.7584 7.3 19 8 19ZM4 11H16V10C16 9.71669 16.0958 9.47919 16.2875 9.28753C16.4792 9.09586 16.7167 9.00003 17 9.00003C17.2833 9.00003 17.5208 9.09586 17.7125 9.28753C17.9042 9.47919 18 9.71669 18 10V11H20V8.00003H4V11Z" fill="#525252"/>
</g>
</svg>
