<svg width="24" height="24" viewBox="0 0 24 24" fill="none" xmlns="http://www.w3.org/2000/svg">
<mask id="mask0_4183_32804" style="mask-type:alpha" maskUnits="userSpaceOnUse" x="0" y="0" width="24" height="24">
<rect width="24" height="24" fill="#D9D9D9"/>
</mask>
<g mask="url(#mask0_4183_32804)">
<path d="M4 20C3.45 20 2.97917 19.8042 2.5875 19.4125C2.19583 19.0208 2 18.55 2 18V6C2 5.45 2.19583 4.97917 2.5875 4.5875C2.97917 4.19583 3.45 4 4 4H20C20.55 4 21.0208 4.19583 21.4125 4.5875C21.8042 4.97917 22 5.45 22 6V18C22 18.55 21.8042 19.0208 21.4125 19.4125C21.0208 19.8042 20.55 20 20 20H4ZM4 18H11V6H4V18ZM13 18H20V6H13V18ZM6 16H9C9.28333 16 9.52083 15.9042 9.7125 15.7125C9.90417 15.5208 10 15.2833 10 15C10 14.7167 9.90417 14.4792 9.7125 14.2875C9.52083 14.0958 9.28333 14 9 14H6C5.71667 14 5.47917 14.0958 5.2875 14.2875C5.09583 14.4792 5 14.7167 5 15C5 15.2833 5.09583 15.5208 5.2875 15.7125C5.47917 15.9042 5.71667 16 6 16ZM6 13H9C9.28333 13 9.52083 12.9042 9.7125 12.7125C9.90417 12.5208 10 12.2833 10 12C10 11.7167 9.90417 11.4792 9.7125 11.2875C9.52083 11.0958 9.28333 11 9 11H6C5.71667 11 5.47917 11.0958 5.2875 11.2875C5.09583 11.4792 5 11.7167 5 12C5 12.2833 5.09583 12.5208 5.2875 12.7125C5.47917 12.9042 5.71667 13 6 13ZM6 10H9C9.28333 10 9.52083 9.90417 9.7125 9.7125C9.90417 9.52083 10 9.28333 10 9C10 8.71667 9.90417 8.47917 9.7125 8.2875C9.52083 8.09583 9.28333 8 9 8H6C5.71667 8 5.47917 8.09583 5.2875 8.2875C5.09583 8.47917 5 8.71667 5 9C5 9.28333 5.09583 9.52083 5.2875 9.7125C5.47917 9.90417 5.71667 10 6 10ZM15 16H18C18.2833 16 18.5208 15.9042 18.7125 15.7125C18.9042 15.5208 19 15.2833 19 15C19 14.7167 18.9042 14.4792 18.7125 14.2875C18.5208 14.0958 18.2833 14 18 14H15C14.7167 14 14.4792 14.0958 14.2875 14.2875C14.0958 14.4792 14 14.7167 14 15C14 15.2833 14.0958 15.5208 14.2875 15.7125C14.4792 15.9042 14.7167 16 15 16ZM15 13H18C18.2833 13 18.5208 12.9042 18.7125 12.7125C18.9042 12.5208 19 12.2833 19 12C19 11.7167 18.9042 11.4792 18.7125 11.2875C18.5208 11.0958 18.2833 11 18 11H15C14.7167 11 14.4792 11.0958 14.2875 11.2875C14.0958 11.4792 14 11.7167 14 12C14 12.2833 14.0958 12.5208 14.2875 12.7125C14.4792 12.9042 14.7167 13 15 13ZM15 10H18C18.2833 10 18.5208 9.90417 18.7125 9.7125C18.9042 9.52083 19 9.28333 19 9C19 8.71667 18.9042 8.47917 18.7125 8.2875C18.5208 8.09583 18.2833 8 18 8H15C14.7167 8 14.4792 8.09583 14.2875 8.2875C14.0958 8.47917 14 8.71667 14 9C14 9.28333 14.0958 9.52083 14.2875 9.7125C14.4792 9.90417 14.7167 10 15 10Z" fill="#525252"/>
</g>
</svg>
