<svg width="64" height="65" viewBox="0 0 64 65" fill="none" xmlns="http://www.w3.org/2000/svg">
<mask id="mask0_3329_22604" style="mask-type:alpha" maskUnits="userSpaceOnUse" x="0" y="0" width="64" height="65">
<rect y="0.836426" width="64" height="64" fill="#D9D9D9"/>
</mask>
<g mask="url(#mask0_3329_22604)">
<path d="M0 64.8232V15.0455H14.2222V0.823242H49.7778V29.2677H64V64.8232H35.5556V50.601H28.4444V64.8232H0ZM7.11111 57.7121H14.2222V50.601H7.11111V57.7121ZM7.11111 43.4899H14.2222V36.3788H7.11111V43.4899ZM7.11111 29.2677H14.2222V22.1566H7.11111V29.2677ZM21.3333 43.4899H28.4444V36.3788H21.3333V43.4899ZM21.3333 29.2677H28.4444V22.1566H21.3333V29.2677ZM21.3333 15.0455H28.4444V7.93435H21.3333V15.0455ZM35.5556 43.4899H42.6667V36.3788H35.5556V43.4899ZM35.5556 29.2677H42.6667V22.1566H35.5556V29.2677ZM35.5556 15.0455H42.6667V7.93435H35.5556V15.0455ZM49.7778 57.7121H56.8889V50.601H49.7778V57.7121ZM49.7778 43.4899H56.8889V36.3788H49.7778V43.4899Z" fill="#1C97C5"/>
</g>
</svg>
