<svg width="120" height="119" viewBox="0 0 120 119" fill="none" xmlns="http://www.w3.org/2000/svg">
<path d="M96.2807 111.052C87.1516 111.052 79.721 103.615 79.721 94.4651C79.721 89.1432 82.2463 84.4114 86.1522 81.3751L94.2065 95.6425C94.6442 96.4207 95.4522 96.8535 96.2826 96.8535C96.6802 96.8535 97.0838 96.7532 97.4565 96.5441C98.6018 95.8953 99.0054 94.4396 98.3568 93.29L90.3024 79.0177C92.1603 78.2926 94.1707 77.8792 96.2807 77.8792C105.414 77.8792 112.845 85.3197 112.845 94.4651C112.845 103.615 105.414 111.052 96.2807 111.052ZM64.2561 83.2588L66.8938 71.174C66.9029 71.1302 66.9005 71.0839 66.909 71.0346C66.9406 70.8629 66.9583 70.6839 66.9698 70.5092C66.9814 70.3667 66.9941 70.2243 66.9923 70.08C66.9911 69.9265 66.9722 69.7743 66.9552 69.6203C66.9358 69.4608 66.9218 69.3037 66.8896 69.1509C66.858 69.0108 66.8112 68.8739 66.7662 68.7363C66.7194 68.5822 66.6744 68.43 66.6111 68.2827C66.5516 68.1469 66.4786 68.016 66.4051 67.8833C66.3333 67.7463 66.2628 67.6124 66.1777 67.4857C66.0944 67.3603 65.9941 67.2422 65.8968 67.1259C65.7953 67.0035 65.695 66.8811 65.5838 66.7697C65.4822 66.668 65.3722 66.5822 65.2622 66.4921C65.1272 66.3782 64.9892 66.268 64.8397 66.1719C64.8001 66.1438 64.7673 66.1097 64.7284 66.0836L50.1146 57.1099L59.2778 45.125L59.2529 50.4809C59.245 52.705 60.7733 54.646 62.9399 55.1501L80.3568 59.222V69.3761L64.2561 83.2588ZM23.7162 111.052C14.5846 111.052 7.1534 103.615 7.1534 94.4651C7.1534 85.3197 14.5846 77.8792 23.7162 77.8792C25.8026 77.8792 27.7923 78.284 29.6301 78.9915L21.6341 93.3016C21.2207 94.045 21.2304 94.9545 21.6663 95.6863C22.0931 96.4102 22.8755 96.8535 23.7162 96.8535H23.7405L40.1131 96.6771C39.0291 104.779 32.0982 111.052 23.7162 111.052ZM40.0541 91.8697L27.8087 92.034L33.7895 81.3331C37.0723 83.861 39.3763 87.5944 40.0541 91.8697ZM41.1435 68.167L53.167 89.3356L52.6533 91.6972L47.2677 91.7705C46.4817 84.8558 42.7241 78.8448 37.3087 75.0335L41.1435 68.167ZM54.6898 82.3565L44.8974 65.1149L56.8516 72.452L54.6898 82.3565ZM96.2807 70.7168C92.8928 70.7168 89.6751 71.4425 86.7558 72.7333L85.1254 69.8443V59.703C86.7297 59.2409 88.0519 57.9605 88.455 56.2149C89.0532 53.645 87.4604 51.0782 84.895 50.4761L68.8088 46.7122L68.8738 30.7583C68.8775 30.2779 68.7863 29.8201 68.6544 29.3823C74.1585 29.3154 78.6054 24.8355 78.6054 19.3049C78.6054 13.734 74.0983 9.2189 68.5358 9.2189C62.9721 9.2189 58.4607 13.734 58.4607 19.3049C58.4607 21.1174 58.9793 22.7911 59.8097 24.2571C58.0103 24.5092 56.3032 25.434 55.1111 26.9957L36.0582 51.9336C33.6588 55.0776 34.2557 59.5721 37.3932 61.9782C37.8054 62.2942 38.2504 62.5426 38.7021 62.7538L33.1536 72.6913C30.2587 71.4249 27.0683 70.7168 23.7162 70.7168C10.6368 70.7168 0 81.372 0 94.4651C0 107.562 10.6368 118.216 23.7162 118.216C36.074 118.216 46.2427 108.695 47.3242 96.5972L53.2053 96.5303C53.8685 97.4647 54.8546 98.1759 56.0613 98.4389C56.4041 98.5133 56.7476 98.5449 57.085 98.5449C59.2778 98.5449 61.2505 97.0252 61.7374 94.7921L62.5606 91.0197L82.0943 74.1811L82.6098 75.0962C76.544 79.4 72.5639 86.4729 72.5639 94.4651C72.5639 107.562 83.2038 118.216 96.2807 118.216C109.358 118.216 120 107.562 120 94.4651C120 81.372 109.358 70.7168 96.2807 70.7168Z" fill="#E1216D"/>
<path d="M50.9581 28.9163C50.9581 28.9163 40.6247 20.1576 28.7039 39.2634C22.9068 48.5525 21.4283 51.9729 21.4405 53.0396C21.4502 54.1647 45.395 42.4483 45.395 42.4483L55.7254 32.8962L50.9581 28.9163Z" fill="#E1216D"/>
<path d="M61.2087 5.877C61.3892 5.89831 61.6172 5.91171 61.9011 5.91171C63.2561 5.91171 65.1079 5.60302 66.9772 5.06481C69.6904 4.28611 71.4904 3.31867 72.3032 2.69218C72.1202 2.67574 71.8874 2.66174 71.6053 2.66174C70.2527 2.66174 68.4034 2.9692 66.5316 3.50681C63.8215 4.28612 62.019 5.25477 61.2087 5.877ZM61.9011 8.30078C59.9181 8.30078 58.7533 7.75039 58.4475 6.67214C58.1277 5.55919 58.8815 4.44381 60.6852 3.35521C62.0202 2.54911 63.8628 1.78746 65.8745 1.2115C67.9779 0.606924 70.0144 0.273273 71.6053 0.273273C73.5926 0.273273 74.7562 0.818787 75.0632 1.89947C75.9021 4.82493 69.0235 6.96317 67.6374 7.36135C65.5285 7.96593 63.4938 8.30078 61.9011 8.30078Z" fill="#E1216D"/>
</svg>
