<svg width="64" height="65" viewBox="0 0 64 65" fill="none" xmlns="http://www.w3.org/2000/svg">
<path d="M31.9992 64.849C27.5707 64.849 23.4091 64.0086 19.5142 62.3279C15.6193 60.6473 12.2312 58.3664 9.35009 55.4852C6.46893 52.604 4.18802 49.216 2.50734 45.3211C0.826666 41.4262 -0.0136719 37.2645 -0.0136719 32.8361C-0.0136719 28.4077 0.826666 24.246 2.50734 20.3511C4.18802 16.4562 6.46893 13.0682 9.35009 10.187C12.2312 7.30585 15.6193 5.02493 19.5142 3.34425C23.4091 1.66358 27.5707 0.823242 31.9992 0.823242C36.4276 0.823242 40.5893 1.66358 44.4842 3.34425C48.3791 5.02493 51.7671 7.30585 54.6483 10.187C57.5294 13.0682 59.8104 16.4562 61.491 20.3511C63.1717 24.246 64.012 28.4077 64.012 32.8361C64.012 37.2645 63.1717 41.4262 61.491 45.3211C59.8104 49.216 57.5294 52.604 54.6483 55.4852C51.7671 58.3664 48.3791 60.6473 44.4842 62.3279C40.5893 64.0086 36.4276 64.849 31.9992 64.849ZM28.7979 58.2863V52.0438C27.0372 52.0438 25.5299 51.4169 24.2761 50.1631C23.0222 48.9092 22.3953 47.402 22.3953 45.6412V42.44L7.02916 27.0738C6.86909 28.0342 6.72237 28.9946 6.58898 29.9549C6.45559 30.9153 6.3889 31.8757 6.3889 32.8361C6.3889 39.292 8.50975 44.9476 12.7515 49.8029C16.9932 54.6582 22.342 57.486 28.7979 58.2863ZM50.8868 50.123C53.0743 47.7221 54.7417 45.041 55.8888 42.0798C57.0359 39.1186 57.6095 36.0374 57.6095 32.8361C57.6095 27.6073 56.1556 22.8321 53.2477 18.5103C50.3399 14.1886 46.4583 11.0674 41.603 9.14659V10.4271C41.603 12.1878 40.9761 13.6951 39.7223 14.9489C38.4685 16.2028 36.9612 16.8297 35.2005 16.8297H28.7979V23.2322C28.7979 24.1393 28.4911 24.8996 27.8775 25.5132C27.264 26.1267 26.5036 26.4335 25.5966 26.4335H19.194V32.8361H38.4018C39.3088 32.8361 40.0691 33.1429 40.6827 33.7565C41.2963 34.3701 41.603 35.1304 41.603 36.0374V45.6412H44.8043C46.1916 45.6412 47.4454 46.0547 48.5658 46.8817C49.6863 47.7087 50.4599 48.7892 50.8868 50.123Z" fill="#ED601C"/>
</svg>
