<svg width="58" height="58" viewBox="0 0 58 58" fill="none" xmlns="http://www.w3.org/2000/svg">
<mask id="mask0_3329_22578" style="mask-type:alpha" maskUnits="userSpaceOnUse" x="0" y="0" width="58" height="58">
<rect y="0.239258" width="57.1943" height="57.1943" fill="#4D7A18"/>
</mask>
<g mask="url(#mask0_3329_22578)">
<path d="M22.9585 19.7587L27.1791 12.7451L23.5171 6.66254C23.0206 5.83498 22.3068 5.4212 21.3758 5.4212C20.4448 5.4212 19.731 5.83498 19.2345 6.66254L14.4553 14.6692C14.1243 15.2485 14.0312 15.8795 14.176 16.5622C14.3209 17.245 14.6829 17.7519 15.2622 18.0829L19.5448 20.6276C20.1241 20.9587 20.7551 21.0414 21.4379 20.8759C22.1206 20.7104 22.6275 20.338 22.9585 19.7587ZM45.6751 38.7512L41.4545 31.7376C41.0821 31.1583 40.989 30.5273 41.1752 29.8446C41.3614 29.1619 41.7442 28.655 42.3234 28.3239L46.6681 25.8413C47.2474 25.5102 47.8681 25.4275 48.5302 25.593C49.1922 25.7585 49.6887 26.1309 50.0198 26.7102L52.7507 31.2411C53.2059 31.9445 53.4541 32.7307 53.4955 33.5997C53.5369 34.4686 53.3507 35.2755 52.9369 36.0203C52.5231 36.8478 51.9128 37.5099 51.1059 38.0064C50.2991 38.503 49.4198 38.7512 48.4681 38.7512H45.6751ZM36.4271 54.0197L30.3445 47.9371C29.848 47.4406 29.5997 46.8613 29.5997 46.1993C29.5997 45.5372 29.848 44.9579 30.3445 44.4614L36.4271 38.3788C36.8409 37.965 37.296 37.8616 37.7926 38.0685C38.2891 38.2754 38.5374 38.6685 38.5374 39.2478V41.2339H50.3301L46.7302 48.4337C46.2751 49.2612 45.6544 49.9233 44.8682 50.4198C44.082 50.9164 43.2131 51.1646 42.2614 51.1646H38.5374V53.1508C38.5374 53.7301 38.2891 54.1232 37.7926 54.3301C37.296 54.5369 36.8409 54.4335 36.4271 54.0197ZM14.5174 51.1646C13.6898 51.1646 12.9347 50.9474 12.252 50.5129C11.5692 50.0785 11.0623 49.5095 10.7313 48.8061C10.4003 48.144 10.2451 47.451 10.2658 46.7268C10.2865 46.0027 10.483 45.3303 10.8554 44.7097L12.9657 41.2339H21.1586C21.862 41.2339 22.4516 41.4718 22.9275 41.9477C23.4033 42.4235 23.6413 43.0132 23.6413 43.7166V48.682C23.6413 49.3854 23.4033 49.975 22.9275 50.4509C22.4516 50.9267 21.862 51.1646 21.1586 51.1646H14.5174ZM8.37276 44.089L4.3384 36.0203C3.966 35.2755 3.79014 34.4789 3.81083 33.6307C3.83152 32.7824 4.06944 31.9859 4.5246 31.2411L5.51767 29.5653L3.84186 28.5722C3.3867 28.2826 3.2005 27.8584 3.28326 27.2998C3.36601 26.7412 3.67635 26.3999 4.21426 26.2757L12.4692 24.2275C13.1312 24.062 13.7622 24.1551 14.3622 24.5068C14.9622 24.8585 15.345 25.3654 15.5105 26.0275L17.5587 34.3445C17.6828 34.8824 17.5173 35.3168 17.0622 35.6479C16.607 35.9789 16.1518 35.9996 15.6967 35.7099L14.0209 34.6548L8.37276 44.089ZM39.4684 22.2414L31.2134 20.1932C30.6755 20.069 30.3755 19.7277 30.3135 19.1691C30.2514 18.6105 30.448 18.1863 30.9031 17.8967L32.5789 16.9036L24.8205 3.99365H33.572C34.4409 3.99365 35.2581 4.21089 36.0236 4.64536C36.7891 5.07983 37.3995 5.66946 37.8546 6.41427L41.0821 11.8141L42.6959 10.821C43.151 10.5314 43.6062 10.5521 44.0613 10.8831C44.5165 11.2141 44.682 11.6486 44.5579 12.1865L42.5097 20.4414C42.3441 21.1035 41.9614 21.6104 41.3614 21.9621C40.7614 22.3138 40.1304 22.4069 39.4684 22.2414Z" fill="#4D7A18"/>
</g>
</svg>
