<svg width="36" height="38" viewBox="0 0 36 38" fill="none" xmlns="http://www.w3.org/2000/svg">
<rect y="0.895264" width="36" height="36.2094" rx="18" fill="#BBBBBB"/>
<path d="M13.6134 19.7542H24.0535C24.221 19.7378 24.377 19.6511 24.4906 19.5113C24.6043 19.3715 24.6673 19.1888 24.6673 18.9991C24.6673 18.8095 24.6043 18.6267 24.4906 18.4869C24.377 18.3471 24.221 18.2605 24.0535 18.2441H13.6134L17.1632 14.2415C17.2365 14.1743 17.2965 14.0905 17.3391 13.9954C17.3818 13.9004 17.4062 13.7962 17.4108 13.6898C17.4154 13.5834 17.4 13.477 17.3656 13.3778C17.3313 13.2785 17.2788 13.1885 17.2116 13.1137C17.1443 13.0388 17.0638 12.9808 16.9754 12.9435C16.8869 12.9061 16.7925 12.8901 16.6982 12.8967C16.6039 12.9033 16.5119 12.9322 16.4281 12.9816C16.3444 13.031 16.2709 13.0997 16.2123 13.1833L11.5244 18.4695C11.4023 18.611 11.334 18.8007 11.334 18.9982C11.334 19.1956 11.4023 19.3853 11.5244 19.5268L16.2123 24.814C16.2707 24.8981 16.3442 24.9673 16.4279 25.0171C16.5117 25.0669 16.6039 25.0962 16.6984 25.1031C16.7929 25.1099 16.8876 25.0942 16.9763 25.0568C17.065 25.0195 17.1457 24.9614 17.2132 24.8865C17.2806 24.8115 17.3332 24.7213 17.3676 24.6217C17.402 24.5222 17.4173 24.4156 17.4126 24.309C17.4078 24.2023 17.3832 24.098 17.3402 24.0028C17.2972 23.9076 17.2369 23.8238 17.1632 23.7567L13.6067 19.7542H13.6134Z" fill="#F8F8F8"/>
</svg>
