<svg width="36" height="38" viewBox="0 0 36 38" fill="none" xmlns="http://www.w3.org/2000/svg">
<rect width="36" height="36.2094" rx="18" transform="matrix(-1 0 0 1 36 0.895264)" fill="#BBBBBB"/>
<path d="M22.3866 19.7542H11.9465C11.779 19.7378 11.623 19.6511 11.5094 19.5113C11.3957 19.3715 11.3327 19.1888 11.3327 18.9991C11.3327 18.8095 11.3957 18.6267 11.5094 18.4869C11.623 18.3471 11.779 18.2605 11.9465 18.2441H22.3866L18.8368 14.2415C18.7635 14.1743 18.7035 14.0905 18.6609 13.9954C18.6182 13.9004 18.5938 13.7962 18.5892 13.6898C18.5846 13.5834 18.6 13.477 18.6344 13.3778C18.6687 13.2785 18.7212 13.1885 18.7884 13.1137C18.8557 13.0388 18.9362 12.9808 19.0246 12.9435C19.1131 12.9061 19.2075 12.8901 19.3018 12.8967C19.3961 12.9033 19.4881 12.9322 19.5719 12.9816C19.6556 13.031 19.7291 13.0997 19.7877 13.1833L24.4756 18.4695C24.5977 18.611 24.666 18.8007 24.666 18.9982C24.666 19.1956 24.5977 19.3853 24.4756 19.5268L19.7877 24.814C19.7293 24.8981 19.6558 24.9673 19.5721 25.0171C19.4883 25.0669 19.3961 25.0962 19.3016 25.1031C19.2071 25.1099 19.1124 25.0942 19.0237 25.0568C18.935 25.0195 18.8543 24.9614 18.7868 24.8865C18.7194 24.8115 18.6668 24.7213 18.6324 24.6217C18.598 24.5222 18.5827 24.4156 18.5874 24.309C18.5922 24.2023 18.6168 24.098 18.6598 24.0028C18.7028 23.9076 18.7631 23.8238 18.8368 23.7567L22.3933 19.7542H22.3866Z" fill="#F8F8F8"/>
</svg>
