<svg width="401" height="396" viewBox="0 0 401 396" fill="none" xmlns="http://www.w3.org/2000/svg">
<g clip-path="url(#clip0_1211_6153)">
<path d="M272.542 0.18718C202.948 -0.385117 140.994 57.2273 140.48 119.553C140.086 167.66 184.563 204.561 236.876 219.167L226.828 248.342L255.535 223.361C265.098 225.004 274.769 225.923 284.346 226.004C353.94 226.573 400.243 164.783 400.754 102.46C401.269 40.1363 342.133 0.75946 272.542 0.18718Z" fill="#80CC28"/>
<path d="M237.928 385.742C225.1 385.742 214.66 375.308 214.66 362.472C214.66 355.006 218.209 348.367 223.697 344.108L235.014 364.124C235.627 365.216 236.763 365.823 237.931 365.823C238.488 365.823 239.055 365.682 239.579 365.389C241.188 364.479 241.755 362.436 240.845 360.823L229.528 340.8C232.138 339.783 234.962 339.203 237.928 339.203C250.76 339.203 261.2 349.642 261.2 362.472C261.2 375.308 250.76 385.742 237.928 385.742ZM192.931 346.75L196.637 329.796C196.649 329.735 196.647 329.67 196.657 329.6C196.703 329.36 196.727 329.108 196.744 328.863C196.759 328.663 196.778 328.464 196.775 328.261C196.774 328.046 196.747 327.832 196.722 327.616C196.696 327.392 196.676 327.172 196.631 326.958C196.586 326.761 196.521 326.569 196.458 326.376C196.392 326.16 196.329 325.946 196.24 325.74C196.156 325.549 196.053 325.366 195.95 325.179C195.849 324.987 195.75 324.799 195.631 324.622C195.513 324.446 195.372 324.28 195.236 324.117C195.093 323.945 194.953 323.773 194.796 323.617C194.654 323.474 194.499 323.354 194.343 323.228C194.156 323.068 193.961 322.913 193.751 322.778C193.695 322.739 193.649 322.691 193.594 322.654L173.06 310.065L185.937 293.251L185.901 300.765C185.89 303.885 188.037 306.608 191.081 307.315L215.553 313.028V327.274L192.931 346.75ZM135.97 385.742C123.14 385.742 112.698 375.308 112.698 362.472C112.698 349.642 123.14 339.203 135.97 339.203C138.902 339.203 141.698 339.771 144.279 340.763L133.045 360.84C132.464 361.883 132.478 363.159 133.089 364.185C133.69 365.201 134.79 365.823 135.97 365.823H136.003L159.008 365.575C157.486 376.942 147.748 385.742 135.97 385.742ZM158.926 358.831L141.72 359.061L150.124 344.049C154.736 347.595 157.973 352.833 158.926 358.831ZM160.455 325.577L177.35 355.276L176.628 358.589L169.062 358.692C167.957 348.991 162.677 340.558 155.068 335.211L160.455 325.577ZM179.49 345.484L165.731 321.295L182.527 331.589L179.49 345.484ZM237.928 329.155C233.167 329.155 228.646 330.173 224.545 331.984L222.253 327.931V313.703C224.508 313.054 226.366 311.258 226.932 308.809C227.772 305.204 225.534 301.603 221.929 300.758L199.327 295.478L199.419 273.095C199.425 272.421 199.296 271.779 199.11 271.165C206.844 271.071 213.092 264.786 213.092 257.027C213.092 249.211 206.76 242.877 198.944 242.877C191.127 242.877 184.788 249.211 184.788 257.027C184.788 259.569 185.516 261.917 186.683 263.974C184.155 264.328 181.757 265.625 180.082 267.816L153.311 302.803C149.94 307.214 150.779 313.519 155.187 316.895C155.766 317.338 156.392 317.687 157.026 317.983L149.23 331.925C145.163 330.148 140.68 329.155 135.97 329.155C117.593 329.155 102.647 344.103 102.647 362.472C102.647 380.846 117.593 395.793 135.97 395.793C153.334 395.793 167.621 382.435 169.14 365.463L177.404 365.369C178.336 366.68 179.721 367.678 181.417 368.047C181.898 368.152 182.38 368.196 182.855 368.196C185.937 368.196 188.709 366.064 189.391 362.931L190.548 357.638L217.994 334.015L218.719 335.299C210.196 341.337 204.604 351.259 204.604 362.472C204.604 380.846 219.553 395.793 237.928 395.793C256.301 395.793 271.254 380.846 271.254 362.472C271.254 344.103 256.301 329.155 237.928 329.155Z" fill="#00ADEF"/>
<path d="M174.245 270.51C174.245 270.51 159.726 258.223 142.978 285.027C134.831 298.059 132.754 302.858 132.771 304.354C132.785 305.933 166.43 289.495 166.43 289.495L180.944 276.094L174.245 270.51Z" fill="#00ADEF"/>
<path d="M188.649 238.187C188.903 238.217 189.223 238.236 189.622 238.236C191.525 238.236 194.127 237.803 196.754 237.048C200.565 235.956 203.095 234.598 204.237 233.719C203.981 233.696 203.654 233.677 203.257 233.677C201.356 233.677 198.758 234.108 196.128 234.862C192.32 235.956 189.788 237.315 188.649 238.187ZM189.622 241.588C186.835 241.588 185.199 240.816 184.769 239.303C184.32 237.742 185.379 236.177 187.914 234.65C189.789 233.519 192.378 232.45 195.205 231.642C198.16 230.794 201.022 230.326 203.257 230.326C206.049 230.326 207.684 231.091 208.115 232.607C209.293 236.711 199.629 239.711 197.682 240.27C194.72 241.118 191.86 241.588 189.622 241.588Z" fill="#00ADEF"/>
<path d="M213.223 92.7844C213.163 92.113 213.098 91.4041 213.034 90.6635C212.969 89.9221 212.84 89.2729 212.651 88.7126C212.465 88.1514 212.179 87.7022 211.803 87.3622C211.427 87.0231 210.861 86.8856 210.105 86.9531C209.076 87.0453 208.392 87.141 208.054 87.2375C207.716 87.3366 207.577 87.7218 207.64 88.3949L208.69 100.215C208.752 100.89 208.868 101.253 209.048 101.304C209.223 101.357 209.998 101.321 211.376 101.199C212.473 101.101 213.152 100.734 213.406 100.101C213.662 99.4674 213.722 98.3766 213.584 96.8263L213.223 92.7844ZM210.398 65.6434C210.337 64.9721 210.275 64.2639 210.21 63.5217C210.141 62.7811 210.015 62.1311 209.826 61.5699C209.635 61.0121 209.353 60.5603 208.978 60.2203C208.6 59.8821 208.034 59.7437 207.276 59.8112C206.38 59.8915 205.799 59.9786 205.531 60.0692C205.261 60.1614 205.156 60.5449 205.215 61.2163L206.207 72.3307C206.266 73.0055 206.472 73.3617 206.822 73.3967C207.171 73.4334 207.723 73.4171 208.482 73.3497C209.652 73.2463 210.337 72.7611 210.537 71.8942C210.737 71.028 210.815 70.3251 210.768 69.7853L210.398 65.6434ZM225.088 110.363C222.124 113.548 217.986 115.375 212.682 115.849L198.074 117.149C197.334 117.215 196.762 117.249 196.357 117.252C195.949 117.254 195.638 117.18 195.422 117.03C195.205 116.879 195.063 116.604 194.992 116.201C194.922 115.802 194.853 115.197 194.781 114.388L189.02 49.7278C188.954 48.9864 188.919 48.4124 188.917 48.005C188.913 47.5976 189.004 47.2849 189.187 47.0654C189.372 46.8442 189.663 46.7015 190.063 46.6315C190.462 46.5615 191.032 46.4931 191.771 46.4273L205.976 45.1615C211.281 44.6883 215.675 45.7585 219.155 48.3663C222.639 50.9758 224.613 54.9066 225.081 60.1597L225.802 68.2426C226.005 70.5326 225.773 72.3366 225.115 73.6503C224.449 74.9657 223.671 75.9685 222.783 76.6578C221.893 77.3489 221.07 77.8127 220.312 78.0501C219.551 78.2876 219.178 78.4738 219.189 78.6071C219.201 78.7437 219.618 78.8428 220.438 78.9034C221.258 78.9675 222.197 79.2229 223.257 79.6705C224.314 80.1206 225.3 80.8988 226.213 82.0041C227.126 83.1111 227.68 84.7425 227.87 86.8975L228.835 97.7078C229.303 102.961 228.054 107.181 225.088 110.363Z" fill="white"/>
<path d="M251.813 111.599C251.733 111.844 251.449 112.038 250.955 112.185C250.462 112.33 249.698 112.466 248.667 112.592C247.632 112.718 246.144 112.868 244.205 113.04C242.398 113.201 241.008 113.309 240.034 113.361C239.061 113.414 238.337 113.411 237.861 113.35C237.381 113.292 237.099 113.164 237.014 112.967C236.93 112.773 236.873 112.506 236.845 112.17L230.851 44.8813C230.808 44.4107 230.822 44.0528 230.904 43.8059C230.983 43.5625 231.237 43.3703 231.662 43.2294C232.088 43.091 232.784 42.962 233.751 42.8407C234.718 42.7203 236.105 42.5802 237.91 42.4179C239.85 42.2454 241.358 42.1292 242.432 42.0668C243.506 42.0062 244.3 42.0199 244.814 42.1096C245.33 42.2001 245.628 42.3598 245.716 42.5887C245.803 42.8194 245.87 43.1704 245.912 43.6402L251.88 110.626C251.917 111.029 251.894 111.355 251.813 111.599Z" fill="white"/>
<path d="M300.762 107.236C300.708 107.41 300.468 107.568 300.04 107.707C299.611 107.847 298.879 107.999 297.839 108.158C296.801 108.32 295.339 108.482 293.454 108.651C291.704 108.807 290.287 108.933 289.211 109.029C288.202 109.118 287.405 109.156 286.83 109.139C286.249 109.124 285.852 109.023 285.629 108.838C285.409 108.655 285.249 108.364 285.144 107.965C284.231 105.333 283.385 102.895 282.61 100.656C281.832 98.4175 281.057 96.2111 280.29 94.0399C279.518 91.8677 278.763 89.6794 278.024 87.4696C277.284 85.2616 276.452 82.8085 275.536 80.1042C275.355 79.6455 275.105 79.4815 274.777 79.6114C274.448 79.7429 274.042 80.5099 273.558 81.9099C273.129 83.2381 272.988 84.6765 273.126 86.226L275.107 108.453C275.144 108.857 274.921 109.2 274.439 109.479C273.957 109.762 273.34 110.002 272.581 110.205C271.823 110.41 271.011 110.567 270.144 110.677C269.278 110.788 268.478 110.876 267.743 110.942C267.071 111.001 266.302 111.054 265.429 111.097C264.555 111.141 263.729 111.146 262.953 111.115C262.173 111.081 261.505 110.973 260.949 110.784C260.394 110.595 260.101 110.334 260.071 109.996L254.05 42.4058C254.019 42.0684 254.281 41.7908 254.834 41.5712C255.385 41.3534 256.062 41.1578 256.857 40.9836C257.649 40.8119 258.461 40.6727 259.295 40.5633C260.129 40.4557 260.815 40.3763 261.35 40.3293C261.951 40.2755 262.686 40.2097 263.557 40.132C264.425 40.0542 265.266 40.0312 266.08 40.0602C266.891 40.0893 267.59 40.1798 268.177 40.3319C268.762 40.4822 269.075 40.7615 269.112 41.1647L271.291 65.6151C271.322 65.9525 271.361 66.4231 271.416 67.0287C271.462 67.5685 271.649 67.7556 271.976 67.5899C272.102 67.513 272.199 67.2491 272.26 66.8006C272.323 66.3548 272.405 65.9584 272.511 65.6082C272.968 63.1235 273.396 60.8805 273.793 58.874C274.194 56.871 274.56 54.9039 274.899 52.9709C275.236 51.0413 275.586 49.058 275.947 47.0234C276.307 44.9879 276.751 42.7244 277.278 40.2345C277.32 39.9603 277.419 39.7468 277.577 39.5956C277.731 39.4461 278.061 39.3163 278.56 39.2026C279.059 39.0916 279.78 38.9925 280.722 38.9088C281.734 38.8191 283.112 38.6961 284.865 38.5407C286.684 38.3784 288.135 38.2657 289.215 38.2033C290.293 38.1418 291.108 38.135 291.657 38.1896C292.205 38.2417 292.568 38.3297 292.748 38.4467C292.928 38.5688 292.992 38.6987 292.938 38.8388C292.233 41.6174 291.616 44.015 291.083 46.0308C290.55 48.0483 290.042 49.9771 289.564 51.8169C289.079 53.6602 288.554 55.5573 287.979 57.5082C287.407 59.4617 286.733 61.7961 285.956 64.5115C285.803 65.0693 285.635 65.6458 285.449 66.2369C285.263 66.8314 285.197 67.3977 285.245 67.9349C285.288 68.4073 285.373 68.807 285.505 69.1342C285.635 69.463 285.962 70.2489 286.478 71.4926C287.856 74.7649 289.087 77.7604 290.181 80.48C291.272 83.2014 292.36 85.904 293.448 88.5894C294.539 91.2775 295.652 94.0809 296.796 96.9987C297.938 99.9182 299.248 103.181 300.722 106.781C300.801 106.911 300.816 107.062 300.762 107.236Z" fill="white"/>
<path d="M335.153 101.779C335.21 102.792 335.221 103.522 335.193 103.965C335.167 104.408 335.071 104.687 334.914 104.804C334.753 104.92 334.539 104.99 334.271 105.014L310.598 107.123C309.792 107.194 309.008 107.281 308.245 107.384C307.475 107.485 306.911 107.385 306.548 107.077C306.117 106.776 305.872 106.288 305.812 105.615C305.751 104.943 305.694 104.302 305.64 103.695L299.949 39.8424C299.89 39.1702 299.885 38.7294 299.932 38.5201C299.981 38.3126 300.155 37.9923 300.454 37.5575C300.753 37.1236 301.066 36.8596 301.395 36.7614C301.725 36.6657 302.156 36.5923 302.692 36.5436L327.766 34.31C328.037 34.2852 328.259 34.3168 328.437 34.4031C328.615 34.4885 328.772 34.7285 328.907 35.1231C329.045 35.5186 329.152 36.1567 329.231 37.0313C329.307 37.906 329.418 39.118 329.556 40.6675C329.717 42.4868 329.846 43.9355 329.941 45.0118C330.032 46.0231 330.049 46.7842 329.993 47.2984C329.936 47.8126 329.829 48.1277 329.671 48.2439C329.51 48.3601 329.262 48.4335 328.927 48.4634L318.823 49.3637C318.419 49.3987 317.966 49.4739 317.467 49.5858C316.968 49.6985 316.661 49.8608 316.545 50.0752C316.305 50.4374 316.173 50.6859 316.153 50.8226C316.13 50.9618 316.151 51.3676 316.21 52.0398L316.867 59.4155C316.908 59.8878 316.951 60.3585 316.993 60.83C317.036 61.3023 317.272 61.6876 317.706 61.9882C318.068 62.2283 318.417 62.3316 318.755 62.3025C319.157 62.2658 319.561 62.2299 319.967 62.1941L324.916 61.7533C325.184 61.7286 325.41 61.761 325.588 61.8456C325.762 61.9327 325.906 62.2086 326.016 62.6741C326.126 63.1388 326.227 63.8768 326.315 64.8873C326.399 65.8303 326.517 67.1448 326.666 68.8275C326.81 70.4436 326.926 71.7231 327.011 72.667C327.087 73.5425 327.132 74.2173 327.14 74.6913C327.146 75.1671 327.07 75.4618 326.912 75.5779C326.754 75.6932 326.503 75.7667 326.168 75.7966L321.622 76.2023C321.08 76.2502 320.578 76.3117 320.111 76.3868C319.64 76.4637 319.313 76.5773 319.121 76.7294C318.682 77.1095 318.481 77.5348 318.524 78.0046C318.566 78.4761 318.617 79.0501 318.677 79.7223L319.423 88.1085C319.485 88.7824 319.564 89.5059 319.668 90.2755C319.77 91.0485 319.961 91.4893 320.243 91.5995C320.525 91.7105 320.973 91.7729 321.585 91.7857C322.197 91.7993 322.771 91.7814 323.31 91.7336L332.91 90.8785C333.177 90.8546 333.419 90.8837 333.629 90.9674C333.841 91.0494 333.998 91.3082 334.104 91.7396C334.209 92.1718 334.321 92.8397 334.438 93.7468C334.554 94.6531 334.683 95.9138 334.826 97.5299C334.987 99.3493 335.097 100.765 335.153 101.779Z" fill="white"/>
<path d="M216.616 164.021C216.438 162.783 216.244 161.543 216.03 160.305C215.819 159.069 215.599 157.731 215.368 156.292C215.137 154.853 214.863 153.128 214.551 151.12C214.539 150.985 214.494 150.683 214.417 150.214C214.341 149.747 214.231 149.264 214.086 148.768C213.942 148.271 213.798 147.827 213.662 147.432C213.524 147.036 213.356 146.847 213.152 146.865C213.017 146.876 212.905 147.127 212.811 147.609C212.718 148.093 212.665 148.624 212.648 149.201C212.63 149.78 212.63 150.342 212.645 150.882C212.659 151.425 212.67 151.729 212.676 151.796C212.701 153.627 212.743 155.236 212.8 156.621C212.856 158.009 212.888 159.313 212.896 160.534C212.901 161.755 212.907 162.976 212.915 164.198C212.924 165.42 212.96 166.808 213.031 168.363C213.068 168.767 213.189 168.995 213.397 169.043C213.606 169.093 214.147 169.079 215.024 169C215.765 168.935 216.32 168.903 216.695 168.903C217.068 168.904 217.231 168.634 217.183 168.095C216.982 166.621 216.794 165.262 216.616 164.021ZM235.788 192.303C235.228 192.49 234.529 192.654 233.692 192.795C232.854 192.939 231.966 193.052 231.022 193.135C230.078 193.22 229.272 193.291 228.598 193.35C227.115 193.483 225.701 193.593 224.35 193.678C223.001 193.766 222.225 193.445 222.025 192.714C221.696 191.318 221.416 190.088 221.188 189.022C220.954 187.958 220.708 186.925 220.453 185.929C220.193 184.935 219.948 183.904 219.719 182.838C219.488 181.774 219.21 180.541 218.879 179.145C218.764 178.613 218.47 178.368 218.001 178.409C217.597 178.444 216.991 178.499 216.183 178.573C215.238 178.655 214.497 178.722 213.959 178.77C213.487 178.811 213.239 179.105 213.223 179.65C213.211 181.076 213.192 182.336 213.152 183.424C213.113 184.513 213.087 185.568 213.076 186.587C213.068 187.606 213.059 188.675 213.057 189.797C213.054 190.917 213.054 192.226 213.052 193.719C213.031 194.264 212.302 194.634 210.858 194.83C209.415 195.027 207.887 195.197 206.269 195.342C205.866 195.376 205.261 195.43 204.451 195.504C203.642 195.575 202.831 195.613 202.019 195.617C201.205 195.623 200.488 195.586 199.87 195.504C199.251 195.423 198.932 195.282 198.916 195.079C199.398 188.315 199.852 182.149 200.271 176.577C200.692 171.008 201.072 165.559 201.414 160.233C201.751 154.908 202.098 149.48 202.456 143.948C202.811 138.419 203.169 132.345 203.529 125.726C203.566 125.385 203.862 125.086 204.418 124.833C204.97 124.579 205.649 124.367 206.45 124.193C207.248 124.02 208.081 123.88 208.958 123.767C209.829 123.656 210.533 123.575 211.072 123.527C211.681 123.473 212.402 123.425 213.251 123.384C214.096 123.343 214.891 123.34 215.644 123.374C216.391 123.409 217.047 123.538 217.612 123.758C218.176 123.981 218.507 124.29 218.609 124.689C220.263 131.058 221.788 136.914 223.181 142.255C224.573 147.597 225.957 152.837 227.33 157.974C228.706 163.115 230.126 168.386 231.592 173.787C233.058 179.189 234.689 185.138 236.49 191.63C236.58 191.893 236.346 192.118 235.788 192.303Z" fill="white"/>
<path d="M280.107 187.997C280.093 188.237 279.857 188.426 279.394 188.571C278.932 188.713 278.199 188.847 277.19 188.97C276.184 189.095 274.701 189.244 272.748 189.418C270.862 189.585 269.597 189.664 268.951 189.654C268.305 189.644 267.776 189.215 267.362 188.369C266.181 185.827 265.206 183.606 264.425 181.706C263.644 179.808 262.882 177.941 262.142 176.106C261.403 174.271 260.614 172.271 259.777 170.104C258.937 167.938 257.903 165.281 256.671 162.133C256.324 161.281 255.918 160.35 255.456 159.339C254.993 158.329 254.559 157.84 254.157 157.876C253.683 157.918 253.503 158.544 253.61 159.758C253.711 160.903 253.807 161.981 253.897 162.991L256.231 189.157C256.264 189.562 256.242 189.888 256.163 190.13C256.085 190.377 255.794 190.572 255.298 190.718C254.803 190.863 254.032 191.001 252.992 191.127C251.95 191.254 250.453 191.405 248.503 191.578C246.685 191.739 245.301 191.848 244.354 191.896C243.41 191.948 242.731 191.939 242.316 191.874C241.904 191.809 241.671 191.677 241.62 191.478C241.566 191.279 241.527 191.012 241.495 190.673L235.5 123.387C235.459 122.915 235.444 122.561 235.459 122.322C235.47 122.083 235.672 121.895 236.07 121.758C236.465 121.621 237.129 121.494 238.071 121.375C239.009 121.259 240.391 121.118 242.208 120.956C243.624 120.83 244.751 120.748 245.597 120.706C246.442 120.665 247.087 120.692 247.542 120.786C247.99 120.882 248.311 121.04 248.5 121.262C248.689 121.484 248.872 121.823 249.049 122.282C249.407 123.268 249.979 124.745 250.766 126.712C251.553 128.678 252.426 130.858 253.387 133.25C254.345 135.643 255.366 138.131 256.445 140.717C257.522 143.302 258.531 145.674 259.469 147.83C259.653 148.357 259.893 148.931 260.182 149.548C260.476 150.167 260.791 150.462 261.13 150.432C261.601 150.389 261.807 149.862 261.752 148.849C261.693 147.835 261.634 146.959 261.566 146.217L259.346 121.263C259.303 120.792 259.32 120.433 259.402 120.188C259.484 119.944 259.735 119.752 260.166 119.611C260.595 119.471 261.293 119.341 262.269 119.219C263.24 119.101 264.638 118.957 266.457 118.795C268.41 118.622 269.91 118.506 270.958 118.446C272.004 118.387 272.75 118.405 273.202 118.5C273.65 118.598 273.904 118.761 273.96 118.993C274.014 119.227 274.061 119.578 274.103 120.048L280.073 187.034C280.107 187.437 280.121 187.76 280.107 187.997Z" fill="white"/>
<path d="M314.353 181.331C311.622 184.493 307.606 186.311 302.301 186.784C299.748 187.011 297.397 186.831 295.246 186.241C293.096 185.653 291.218 184.7 289.611 183.384C288.006 182.067 286.706 180.418 285.717 178.434C284.731 176.452 284.124 174.215 283.901 171.722L283.532 167.58C283.467 166.84 283.434 166.264 283.431 165.857C283.428 165.45 283.62 165.128 284 164.89C284.383 164.653 285.041 164.476 285.974 164.358C286.909 164.242 288.276 164.102 290.083 163.942C291.887 163.78 293.26 163.693 294.203 163.675C295.145 163.66 295.827 163.735 296.244 163.901C296.664 164.067 296.907 164.351 296.979 164.753C297.048 165.154 297.113 165.691 297.172 166.363C297.299 167.78 297.625 169.125 298.153 170.401C298.68 171.679 299.629 172.256 300.997 172.133C301.748 172.068 302.329 171.829 302.742 171.418C303.152 171.008 303.437 170.508 303.592 169.918C303.744 169.327 303.823 168.674 303.829 167.961C303.835 167.248 303.807 166.521 303.739 165.779C303.572 163.895 303.375 161.705 303.155 159.212C302.927 156.654 302.687 153.958 302.433 151.13C302.177 148.234 301.916 145.304 301.65 142.339C301.38 139.309 301.12 136.379 300.869 133.551C300.61 130.654 300.37 127.96 300.147 125.468C299.919 122.909 299.722 120.685 299.553 118.799C299.494 118.127 299.494 117.583 299.559 117.17C299.626 116.756 299.866 116.428 300.281 116.187C300.695 115.948 301.337 115.755 302.2 115.611C303.063 115.467 304.23 115.327 305.7 115.197C307.575 115.03 309.012 114.919 310.018 114.863C311.025 114.808 311.751 114.86 312.206 115.023C312.657 115.188 312.919 115.469 312.99 115.871C313.06 116.273 313.127 116.844 313.192 117.585L317.747 168.706C318.215 173.96 317.085 178.169 314.353 181.331Z" fill="white"/>
<path d="M341.941 154.535C341.732 152.178 341.527 149.888 341.329 147.666C341.132 145.442 340.926 143.153 340.717 140.795C340.506 138.439 340.275 135.845 340.024 133.015C339.965 132.344 339.899 131.637 339.835 130.894C339.77 130.154 339.641 129.504 339.452 128.942C339.263 128.384 338.984 127.933 338.607 127.592C338.229 127.253 337.662 127.115 336.907 127.183C336.151 127.25 335.601 127.488 335.255 127.89C334.912 128.295 334.698 128.79 334.61 129.375C334.525 129.958 334.53 130.621 334.632 131.358C334.731 132.097 334.812 132.802 334.872 133.475L337.481 162.774C337.549 163.515 337.594 164.241 337.626 164.951C337.654 165.662 337.763 166.297 337.949 166.857C338.138 167.417 338.438 167.866 338.849 168.202C339.26 168.539 339.844 168.674 340.599 168.606C341.355 168.539 341.888 168.306 342.197 167.904C342.507 167.504 342.708 167.011 342.792 166.426C342.88 165.841 342.893 165.211 342.834 164.537C342.767 163.797 342.702 163.057 342.634 162.315C342.383 159.486 342.152 156.894 341.941 154.535ZM354.311 177.772C351.347 180.956 347.211 182.784 341.904 183.255C339.351 183.483 336.966 183.306 334.748 182.723C332.53 182.141 330.568 181.196 328.86 179.887C327.152 178.58 325.77 176.939 324.713 174.961C323.66 172.985 323.02 170.75 322.797 168.258L319.448 130.673C319.226 128.184 319.46 125.871 320.15 123.737C320.841 121.606 321.909 119.747 323.36 118.156C324.809 116.568 326.575 115.291 328.654 114.324C330.734 113.358 333.051 112.761 335.601 112.533C340.909 112.061 345.304 113.13 348.784 115.738C352.265 118.347 354.241 122.279 354.709 127.532L358.057 165.116C358.525 170.369 357.277 174.59 354.311 177.772Z" fill="white"/>
<path d="M136.039 385.742C123.209 385.742 112.769 375.308 112.769 362.472C112.769 355.006 116.321 348.367 121.806 344.108L133.123 364.124C133.737 365.216 134.875 365.823 136.043 365.823C136.599 365.823 137.168 365.682 137.69 365.389C139.301 364.479 139.864 362.436 138.956 360.823L127.639 340.8C130.244 339.783 133.071 339.203 136.039 339.203C148.868 339.203 159.308 349.642 159.308 362.472C159.308 375.308 148.868 385.742 136.039 385.742ZM91.0421 346.75L94.7475 329.796C94.7594 329.735 94.7543 329.67 94.768 329.6C94.815 329.36 94.8355 329.108 94.8534 328.863C94.8696 328.663 94.8901 328.464 94.885 328.261C94.8807 328.046 94.8534 327.832 94.8312 327.616C94.8047 327.392 94.7842 327.172 94.7389 326.958C94.6945 326.761 94.6313 326.569 94.5715 326.376C94.5006 326.16 94.44 325.946 94.3494 325.74C94.2691 325.549 94.1624 325.366 94.0624 325.179C93.9582 324.987 93.8583 324.799 93.7413 324.622C93.6208 324.446 93.4799 324.28 93.3424 324.117C93.2023 323.945 93.0648 323.773 92.905 323.617C92.7616 323.474 92.6095 323.354 92.454 323.228C92.2619 323.068 92.0697 322.913 91.863 322.778C91.8057 322.739 91.763 322.691 91.7058 322.654L71.1743 310.065L84.0423 293.251L84.0124 300.765C83.9987 303.885 86.1486 306.608 89.1903 307.315L113.659 313.028V327.274L91.0421 346.75ZM34.0802 385.742C21.2477 385.742 10.8076 375.308 10.8076 362.472C10.8076 349.642 21.2477 339.203 34.0802 339.203C37.0087 339.203 39.8047 339.771 42.3882 340.763L31.1573 360.84C30.5724 361.883 30.5867 363.159 31.1974 364.185C31.802 365.201 32.8963 365.823 34.0802 365.823H34.1142L57.1182 365.575C55.5978 376.942 45.8604 385.742 34.0802 385.742ZM57.0345 358.831L39.829 359.061L48.2341 344.049C52.8474 347.595 56.083 352.833 57.0345 358.831ZM58.5652 325.577L75.4588 355.276L74.7353 358.589L67.1691 358.692C66.0673 348.991 60.786 340.558 53.178 335.211L58.5652 325.577ZM77.6019 345.484L63.8396 321.295L80.6376 331.589L77.6019 345.484ZM136.039 329.155C131.274 329.155 126.753 330.173 122.654 331.984L120.362 327.931V313.703C122.617 313.054 124.472 311.258 125.044 308.809C125.884 305.204 123.643 301.603 120.039 300.758L97.4372 295.478L97.5278 273.095C97.5329 272.421 97.4039 271.779 97.2186 271.165C104.956 271.071 111.203 264.786 111.203 257.027C111.203 249.211 104.865 242.877 97.0529 242.877C89.2373 242.877 82.8985 249.211 82.8985 257.027C82.8985 259.569 83.6237 261.917 84.7948 263.974C82.2648 264.328 79.8654 265.625 78.1921 267.816L51.4201 302.803C48.0496 307.214 48.8892 313.519 53.2958 316.895C53.875 317.338 54.5011 317.687 55.1391 317.983L47.3389 331.925C43.2714 330.148 38.7904 329.155 34.0802 329.155C15.7063 329.155 0.756836 344.103 0.756836 362.472C0.756836 380.846 15.7063 395.793 34.0802 395.793C51.444 395.793 65.7333 382.435 67.2477 365.463L75.5135 365.369C76.4462 366.68 77.8316 367.678 79.5255 368.047C80.0089 368.152 80.4889 368.196 80.9647 368.196C84.0423 368.196 86.8174 366.064 87.5033 362.931L88.6582 357.638L116.104 334.015L116.826 335.299C108.309 341.337 102.719 351.259 102.719 362.472C102.719 380.846 117.666 395.793 136.039 395.793C154.413 395.793 169.359 380.846 169.359 362.472C169.359 344.103 154.413 329.155 136.039 329.155Z" fill="#E3106B"/>
</g>
<defs>
<clipPath id="clip0_1211_6153">
<rect width="401" height="396" fill="white"/>
</clipPath>
</defs>
</svg>
