<svg width="132" height="50" viewBox="0 0 132 50" fill="none" xmlns="http://www.w3.org/2000/svg">
<path d="M67.3782 45.983C63.7341 45.983 60.7681 43.0298 60.7681 39.3965C60.7681 37.2831 61.7761 35.4041 63.3352 34.1984L66.5502 39.864C66.7249 40.173 67.0474 40.3449 67.3789 40.3449C67.5376 40.3449 67.6987 40.3051 67.8475 40.2221C68.3046 39.9644 68.4658 39.3864 68.2068 38.9298L64.9918 33.2623C65.7334 32.9743 66.5359 32.8101 67.3782 32.8101C71.0239 32.8101 73.9899 35.7648 73.9899 39.3965C73.9899 43.0298 71.0239 45.983 67.3782 45.983ZM54.595 34.9464L55.6479 30.1475C55.6516 30.1301 55.6506 30.1118 55.654 30.0922C55.6666 30.024 55.6737 29.9529 55.6783 29.8835C55.6829 29.8269 55.688 29.7704 55.6873 29.7131C55.6868 29.6521 55.6792 29.5917 55.6724 29.5305C55.6647 29.4672 55.6591 29.4048 55.6462 29.3441C55.6336 29.2885 55.6149 29.2341 55.597 29.1795C55.5783 29.1183 55.5603 29.0579 55.5351 28.9994C55.5113 28.9454 55.4822 28.8935 55.4528 28.8408C55.4242 28.7864 55.3961 28.7332 55.3621 28.6829C55.3288 28.6331 55.2888 28.5862 55.25 28.54C55.2095 28.4914 55.1694 28.4428 55.125 28.3986C55.0845 28.3582 55.0406 28.3241 54.9966 28.2883C54.9428 28.2431 54.8877 28.1993 54.828 28.1611C54.8122 28.15 54.7991 28.1365 54.7836 28.1261L48.9503 24.5626L52.6079 19.8034L52.5979 21.9302C52.5948 22.8134 53.2048 23.5842 54.0697 23.7844L61.0219 25.4013V29.4336L54.595 34.9464ZM38.413 45.983C34.768 45.983 31.8017 43.0298 31.8017 39.3965C31.8017 35.7648 34.768 32.8101 38.413 32.8101C39.2458 32.8101 40.04 32.9709 40.7736 33.2519L37.5819 38.9344C37.4168 39.2297 37.4207 39.5908 37.5947 39.8814C37.7651 40.1689 38.0774 40.3449 38.413 40.3449H38.4227L44.958 40.2749C44.5253 43.4923 41.7588 45.983 38.413 45.983ZM44.9345 38.3658L40.0466 38.4311L42.4339 34.1817C43.7442 35.1855 44.6639 36.6681 44.9345 38.3658ZM45.3693 28.9534L50.1687 37.3595L49.9636 38.2973L47.8139 38.3264C47.5001 35.5806 46.0002 33.1936 43.8386 31.6801L45.3693 28.9534ZM50.7765 34.5881L46.8678 27.7414L51.6394 30.655L50.7765 34.5881ZM67.3782 29.966C66.0258 29.966 64.7414 30.2542 63.5761 30.7667L62.9253 29.6195V25.5923C63.5657 25.4088 64.0935 24.9004 64.2544 24.2072C64.4932 23.1867 63.8574 22.1674 62.8334 21.9283L56.4123 20.4337L56.4383 14.0983C56.4397 13.9076 56.4033 13.7258 56.3507 13.5519C58.5477 13.5253 60.3228 11.7464 60.3228 9.55015C60.3228 7.33795 58.5237 5.54498 56.3034 5.54498C54.0825 5.54498 52.2818 7.33795 52.2818 9.55015C52.2818 10.2699 52.4887 10.9345 52.8202 11.5167C52.1019 11.6168 51.4206 11.9841 50.9447 12.6042L43.3395 22.5071C42.3817 23.7556 42.62 25.5404 43.8723 26.4958C44.0369 26.6213 44.2145 26.72 44.3948 26.8038L42.18 30.75C41.0245 30.2471 39.751 29.966 38.413 29.966C33.1921 29.966 28.9463 34.1972 28.9463 39.3965C28.9463 44.5972 33.1921 48.8279 38.413 48.8279C43.3458 48.8279 47.4048 45.0471 47.8365 40.2431L50.184 40.2166C50.4487 40.5876 50.8423 40.87 51.324 40.9745C51.4608 41.004 51.5979 41.0166 51.7326 41.0166C52.6079 41.0166 53.3953 40.4131 53.5897 39.5263L53.9183 38.0283L61.7154 31.3416L61.9212 31.705C59.4999 33.4141 57.9112 36.2227 57.9112 39.3965C57.9112 44.5972 62.1583 48.8279 67.3782 48.8279C72.598 48.8279 76.8461 44.5972 76.8461 39.3965C76.8461 34.1972 72.598 29.966 67.3782 29.966Z" fill="#00ADEF"/>
<path d="M49.2863 13.3668C49.2863 13.3668 45.1616 9.88873 40.4032 17.4757C38.0892 21.1644 37.4991 22.5227 37.5039 22.9463C37.5078 23.3931 47.0657 18.7404 47.0657 18.7404L51.1893 14.9473L49.2863 13.3668Z" fill="#00ADEF"/>
<path d="M53.3788 4.21793C53.4508 4.22639 53.5418 4.23171 53.6551 4.23171C54.196 4.23171 54.9352 4.10913 55.6814 3.89541C56.7644 3.58618 57.4829 3.20201 57.8073 2.95323C57.7343 2.9467 57.6413 2.94114 57.5287 2.94114C56.9888 2.94114 56.2506 3.06324 55.5035 3.27672C54.4217 3.58619 53.7022 3.97084 53.3788 4.21793ZM53.6551 5.18042C52.8636 5.18042 52.3986 4.96186 52.2766 4.53368C52.149 4.09173 52.4499 3.6488 53.1698 3.21652C53.7027 2.89642 54.4382 2.59396 55.2412 2.36525C56.0808 2.12517 56.8937 1.99267 57.5287 1.99267C58.322 1.99267 58.7865 2.2093 58.909 2.63844C59.2439 3.80015 56.4982 4.64925 55.9449 4.80737C55.1031 5.04745 54.2909 5.18042 53.6551 5.18042Z" fill="#00ADEF"/>
<path d="M38.4327 45.983C34.7877 45.983 31.8219 43.0298 31.8219 39.3965C31.8219 37.2831 32.8306 35.4041 34.3892 34.1984L37.6043 39.864C37.7787 40.173 38.102 40.3449 38.4339 40.3449C38.5916 40.3449 38.7533 40.3051 38.9015 40.2221C39.3592 39.9644 39.5193 39.3864 39.2609 38.9298L36.0461 33.2623C36.7865 32.9743 37.5895 32.8101 38.4327 32.8101C42.0772 32.8101 45.043 35.7648 45.043 39.3965C45.043 43.0298 42.0772 45.983 38.4327 45.983ZM25.6493 34.9464L26.7018 30.1475C26.7056 30.1301 26.7039 30.1118 26.7078 30.0922C26.7212 30.024 26.727 29.9529 26.7318 29.8835C26.7367 29.8269 26.7423 29.7704 26.7411 29.7131C26.7399 29.6521 26.7318 29.5917 26.726 29.5305C26.7183 29.4672 26.7122 29.4048 26.6996 29.3441C26.6869 29.2885 26.669 29.2341 26.6518 29.1795C26.6319 29.1183 26.6146 29.0579 26.5889 28.9994C26.5661 28.9454 26.5358 28.8935 26.5074 28.8408C26.4778 28.7864 26.4491 28.7332 26.4161 28.6829C26.3822 28.6331 26.3421 28.5862 26.3028 28.54C26.263 28.4914 26.224 28.4428 26.1786 28.3986C26.1378 28.3582 26.0946 28.3241 26.0504 28.2883C25.9956 28.2431 25.9413 28.1993 25.8825 28.1611C25.8663 28.15 25.8539 28.1365 25.8379 28.1261L20.005 24.5626L23.6607 19.8034L23.6525 21.9302C23.6484 22.8134 24.2594 23.5842 25.1232 23.7844L32.075 25.4013V29.4336L25.6493 34.9464ZM9.4669 45.983C5.82119 45.983 2.85524 43.0298 2.85524 39.3965C2.85524 35.7648 5.82119 32.8101 9.4669 32.8101C10.299 32.8101 11.0933 32.9709 11.827 33.2519L8.63654 38.9344C8.47046 39.2297 8.47444 39.5908 8.64782 39.8814C8.81967 40.1689 9.13067 40.3449 9.4669 40.3449H9.47646L16.0118 40.2749C15.5796 43.4923 12.8136 45.983 9.4669 45.983ZM15.988 38.3658L11.1 38.4311L13.4879 34.1817C14.7985 35.1855 15.7177 36.6681 15.988 38.3658ZM16.4229 28.9534L21.222 37.3595L21.0167 38.2973L18.8672 38.3264C18.5539 35.5806 17.0538 33.1936 14.8922 31.6801L16.4229 28.9534ZM21.8311 34.5881L17.9213 27.7414L22.6935 30.655L21.8311 34.5881ZM38.4327 29.966C37.0791 29.966 35.7947 30.2542 34.63 30.7667L33.9789 29.6195V25.5923C34.6195 25.4088 35.1463 24.9004 35.3089 24.2072C35.5477 23.1867 34.911 22.1674 33.8872 21.9283L27.4661 20.4337L27.4919 14.0983C27.4936 13.9076 27.4567 13.7258 27.4043 13.5519C29.6023 13.5253 31.3771 11.7464 31.3771 9.55015C31.3771 7.33795 29.5766 5.54498 27.3569 5.54498C25.1366 5.54498 23.3356 7.33795 23.3356 9.55015C23.3356 10.2699 23.5418 10.9345 23.8745 11.5167C23.156 11.6168 22.4741 11.9841 21.9987 12.6042L14.393 22.5071C13.4355 23.7556 13.674 25.5404 14.9259 26.4958C15.0904 26.6213 15.2683 26.72 15.4496 26.8038L13.2336 30.75C12.0781 30.2471 10.8049 29.966 9.4669 29.966C4.24693 29.966 0 34.1972 0 39.3965C0 44.5972 4.24693 48.8279 9.4669 48.8279C14.3998 48.8279 18.4593 45.0471 18.8895 40.2431L21.2378 40.2166C21.5027 40.5876 21.8963 40.87 22.3775 40.9745C22.5149 41.004 22.6515 41.0166 22.7864 41.0166C23.6607 41.0166 24.4491 40.4131 24.644 39.5263L24.9721 38.0283L32.769 31.3416L32.9745 31.705C30.5545 33.4141 28.9665 36.2227 28.9665 39.3965C28.9665 44.5972 33.2131 48.8279 38.4327 48.8279C43.6526 48.8279 47.8987 44.5972 47.8987 39.3965C47.8987 34.1972 43.6526 29.966 38.4327 29.966Z" fill="#F1511B"/>
<path d="M104.863 1.04224C94.0322 0.953499 84.0757 7.49835 79.52 16.1944L71.7422 15.441L77.9022 20.0688C77.2738 22.062 76.9281 24.1255 76.9108 26.2141C76.8276 36.359 86.2415 44.1407 97.3138 47.2208C97.3138 47.2208 99.0542 47.7735 99.3783 47.8356C99.7024 47.8978 101.263 48.1053 101.263 48.1053C103.287 48.4518 105.334 48.6456 107.361 48.6626C122.091 48.7827 131.892 35.7524 132 22.6096C132.109 9.46674 119.592 1.16292 104.863 1.04224Z" fill="#80CC28"/>
<path d="M92.3067 20.569C92.294 20.4274 92.2803 20.2779 92.2667 20.1217C92.253 19.9654 92.2253 19.8285 92.1856 19.7103C92.1461 19.592 92.0859 19.4972 92.0059 19.4255C91.9265 19.354 91.8066 19.325 91.6468 19.3393C91.429 19.3587 91.284 19.3789 91.2125 19.3992C91.1408 19.4201 91.1117 19.5014 91.1247 19.6433L91.3474 22.1359C91.3604 22.2782 91.3848 22.3549 91.4232 22.3655C91.46 22.3767 91.624 22.3692 91.9158 22.3434C92.148 22.3229 92.2919 22.2454 92.3454 22.1119C92.3996 21.9783 92.4123 21.7483 92.383 21.4213L92.3067 20.569ZM91.7088 14.8455C91.6958 14.7039 91.6826 14.5546 91.6689 14.398C91.6546 14.2419 91.6278 14.1048 91.5877 13.9864C91.5472 13.8688 91.4875 13.7735 91.4082 13.7018C91.3281 13.6305 91.2082 13.6013 91.0478 13.6156C90.8582 13.6325 90.7353 13.6509 90.6787 13.67C90.6212 13.6894 90.5991 13.7703 90.6118 13.9119L90.8219 16.2557C90.8343 16.398 90.8777 16.4731 90.9517 16.4805C91.0258 16.4882 91.1426 16.4848 91.3031 16.4706C91.5508 16.4488 91.6958 16.3464 91.7381 16.1636C91.7804 15.981 91.797 15.8327 91.7871 15.7189L91.7088 14.8455ZM94.818 24.276C94.1905 24.9477 93.3149 25.3329 92.1921 25.4327L89.1004 25.7071C88.9436 25.7209 88.8227 25.7281 88.7366 25.7287C88.6506 25.7292 88.5846 25.7136 88.539 25.6819C88.4929 25.6502 88.4629 25.592 88.4479 25.5071C88.4331 25.4228 88.4184 25.2953 88.4033 25.1247L87.1838 11.4892C87.1697 11.3328 87.1623 11.2118 87.1621 11.1259C87.1612 11.0399 87.1806 10.974 87.2193 10.9277C87.2585 10.8811 87.32 10.851 87.4046 10.8362C87.4894 10.8214 87.6098 10.807 87.7662 10.7932L90.7729 10.5262C91.8956 10.4264 92.8257 10.6521 93.5625 11.202C94.2997 11.7523 94.7175 12.5813 94.8162 13.689L94.969 15.3936C95.012 15.8765 94.9632 16.2569 94.8235 16.534C94.6828 16.8114 94.5181 17.0228 94.3303 17.1682C94.1417 17.3139 93.9674 17.4117 93.8069 17.4618C93.646 17.5119 93.5672 17.5511 93.5695 17.5792C93.572 17.6081 93.6603 17.6289 93.8338 17.6417C94.0074 17.6552 94.2061 17.7091 94.4304 17.8035C94.6541 17.8984 94.8629 18.0625 95.0563 18.2956C95.2496 18.529 95.3664 18.8731 95.407 19.3275L95.611 21.6072C95.7101 22.715 95.4457 23.605 94.818 24.276Z" fill="white"/>
<path d="M100.475 24.5366C100.458 24.5883 100.398 24.6292 100.294 24.6601C100.189 24.6908 100.028 24.7194 99.8092 24.7461C99.5903 24.7725 99.2754 24.8041 98.8648 24.8404C98.4824 24.8743 98.1883 24.8972 97.9818 24.9082C97.7761 24.9193 97.6228 24.9186 97.5219 24.9058C97.4205 24.8936 97.3608 24.8666 97.3429 24.8251C97.325 24.7841 97.3131 24.7279 97.3071 24.6569L96.0382 10.4671C96.0291 10.3678 96.0322 10.2924 96.0495 10.2403C96.0664 10.189 96.1199 10.1484 96.2099 10.1187C96.3003 10.0895 96.4475 10.0623 96.6521 10.0368C96.8568 10.0114 97.1504 9.98182 97.5327 9.9476C97.943 9.91121 98.2622 9.88672 98.4895 9.87357C98.7169 9.86078 98.885 9.86366 98.9937 9.88257C99.1027 9.90167 99.166 9.93535 99.1846 9.98362C99.2031 10.0323 99.2173 10.1063 99.2264 10.2054L100.489 24.3314C100.497 24.4164 100.492 24.485 100.475 24.5366Z" fill="white"/>
<path d="M110.836 23.6167C110.824 23.6535 110.774 23.6868 110.683 23.7162C110.592 23.7457 110.437 23.7776 110.217 23.8113C109.997 23.8453 109.688 23.8796 109.289 23.9152C108.918 23.9482 108.619 23.9747 108.391 23.9948C108.177 24.0137 108.009 24.0217 107.887 24.0181C107.764 24.015 107.68 23.9936 107.633 23.9547C107.586 23.9159 107.552 23.8547 107.53 23.7706C107.337 23.2154 107.158 22.7014 106.994 22.2292C106.829 21.7571 106.665 21.2919 106.503 20.834C106.339 20.3759 106.18 19.9144 106.023 19.4485C105.866 18.9828 105.69 18.4655 105.497 17.8952C105.458 17.7985 105.405 17.7639 105.336 17.7913C105.266 17.819 105.18 17.9808 105.078 18.276C104.987 18.5561 104.957 18.8594 104.986 19.1862L105.406 23.8734C105.414 23.9586 105.366 24.0309 105.264 24.0898C105.162 24.1494 105.032 24.2002 104.871 24.2429C104.711 24.2861 104.539 24.3192 104.355 24.3425C104.172 24.3659 104.003 24.3845 103.847 24.3983C103.705 24.4107 103.542 24.4219 103.357 24.4309C103.172 24.4403 102.997 24.4414 102.833 24.4347C102.668 24.4277 102.527 24.4048 102.409 24.365C102.292 24.3252 102.23 24.2701 102.223 24.1989L100.949 9.94535C100.942 9.8742 100.998 9.81566 101.115 9.76937C101.232 9.72344 101.375 9.68219 101.543 9.64544C101.711 9.60924 101.882 9.57988 102.059 9.55682C102.236 9.53413 102.38 9.51737 102.494 9.50746C102.621 9.49612 102.777 9.48224 102.961 9.46585C103.145 9.44946 103.323 9.4446 103.495 9.45073C103.667 9.45685 103.815 9.47595 103.939 9.50801C104.063 9.53971 104.129 9.59861 104.137 9.68363L104.598 14.8397C104.604 14.9109 104.613 15.0101 104.624 15.1378C104.634 15.2517 104.674 15.2911 104.743 15.2562C104.77 15.24 104.79 15.1843 104.803 15.0898C104.816 14.9957 104.834 14.9122 104.856 14.8383C104.953 14.3143 105.044 13.8413 105.128 13.4182C105.212 12.9958 105.29 12.581 105.362 12.1733C105.433 11.7664 105.507 11.3482 105.583 10.9191C105.66 10.4899 105.754 10.0125 105.865 9.48747C105.874 9.42965 105.895 9.38462 105.928 9.35274C105.961 9.32122 106.031 9.29383 106.137 9.26988C106.242 9.24646 106.395 9.22557 106.594 9.20792C106.808 9.189 107.1 9.16306 107.471 9.13028C107.856 9.09606 108.163 9.07228 108.392 9.05914C108.62 9.04617 108.792 9.04472 108.909 9.05625C109.024 9.06724 109.101 9.08579 109.14 9.11046C109.178 9.13622 109.191 9.16361 109.18 9.19315C109.031 9.7791 108.9 10.2847 108.787 10.7098C108.674 11.1353 108.567 11.542 108.466 11.93C108.363 12.3187 108.252 12.7188 108.13 13.1302C108.009 13.5421 107.867 14.0344 107.702 14.607C107.67 14.7246 107.634 14.8462 107.595 14.9709C107.555 15.0962 107.541 15.2157 107.552 15.329C107.561 15.4286 107.578 15.5129 107.607 15.5819C107.634 15.6512 107.703 15.8169 107.812 16.0792C108.104 16.7693 108.365 17.401 108.596 17.9745C108.827 18.5484 109.057 19.1183 109.287 19.6846C109.519 20.2515 109.754 20.8426 109.996 21.4579C110.238 22.0736 110.515 22.7617 110.827 23.5209C110.844 23.5483 110.847 23.5802 110.836 23.6167Z" fill="white"/>
<path d="M118.115 22.4656C118.127 22.6794 118.129 22.8333 118.123 22.9268C118.118 23.0202 118.098 23.079 118.064 23.1036C118.03 23.1281 117.985 23.1429 117.928 23.1479L112.918 23.5927C112.747 23.6076 112.581 23.626 112.419 23.6476C112.257 23.6691 112.137 23.648 112.06 23.583C111.969 23.5195 111.917 23.4167 111.905 23.2748C111.892 23.133 111.879 22.9977 111.868 22.8698L110.664 9.40449C110.651 9.26274 110.65 9.16979 110.66 9.12566C110.67 9.08189 110.707 9.01434 110.771 8.92266C110.834 8.83115 110.9 8.77549 110.97 8.75477C111.039 8.7346 111.131 8.71911 111.244 8.70884L116.551 8.23782C116.609 8.23259 116.656 8.23925 116.693 8.25745C116.731 8.27546 116.764 8.32608 116.793 8.4093C116.822 8.49269 116.845 8.62725 116.861 8.8117C116.878 8.99615 116.901 9.25174 116.93 9.57849C116.964 9.96216 116.992 10.2677 117.012 10.4946C117.031 10.7079 117.034 10.8684 117.023 10.9768C117.011 11.0853 116.988 11.1517 116.955 11.1762C116.921 11.2007 116.868 11.2162 116.797 11.2225L114.658 11.4124C114.573 11.4197 114.477 11.4356 114.371 11.4592C114.266 11.483 114.201 11.5172 114.176 11.5624C114.126 11.6388 114.098 11.6912 114.093 11.72C114.088 11.7494 114.093 11.8349 114.105 11.9767L114.244 13.5321C114.253 13.6317 114.262 13.7309 114.271 13.8304C114.28 13.93 114.33 14.0112 114.422 14.0746C114.499 14.1252 114.572 14.147 114.644 14.1409C114.729 14.1332 114.815 14.1256 114.9 14.118L115.948 14.0251C116.005 14.0199 116.052 14.0267 116.09 14.0445C116.127 14.0629 116.157 14.1211 116.181 14.2193C116.204 14.3173 116.225 14.4729 116.244 14.686C116.262 14.8848 116.287 15.162 116.319 15.5169C116.349 15.8577 116.373 16.1275 116.391 16.3266C116.407 16.5112 116.417 16.6535 116.419 16.7535C116.42 16.8538 116.404 16.9159 116.37 16.9404C116.337 16.9647 116.284 16.9802 116.213 16.9865L115.251 17.0721C115.136 17.0822 115.03 17.0952 114.931 17.111C114.831 17.1272 114.762 17.1512 114.722 17.1832C114.629 17.2634 114.586 17.3531 114.595 17.4522C114.604 17.5516 114.615 17.6726 114.627 17.8144L114.785 19.5829C114.799 19.725 114.815 19.8776 114.837 20.0399C114.859 20.2029 114.899 20.2958 114.959 20.3191C115.019 20.3425 115.114 20.3556 115.243 20.3583C115.372 20.3612 115.494 20.3574 115.608 20.3473L117.64 20.167C117.697 20.162 117.748 20.1681 117.792 20.1858C117.837 20.2031 117.87 20.2576 117.893 20.3486C117.915 20.4397 117.939 20.5806 117.963 20.7719C117.988 20.963 118.015 21.2289 118.046 21.5697C118.08 21.9533 118.103 22.252 118.115 22.4656Z" fill="white"/>
<path d="M93.0256 35.5917C92.988 35.3305 92.947 35.0691 92.9016 34.8081C92.8569 34.5473 92.8105 34.2652 92.7613 33.9617C92.7125 33.6582 92.6546 33.2945 92.5883 32.8711C92.5861 32.8426 92.5765 32.779 92.5604 32.6801C92.5442 32.5816 92.521 32.4797 92.4899 32.3752C92.4596 32.2704 92.429 32.1767 92.4004 32.0933C92.3713 32.0099 92.3355 31.9701 92.2927 31.9739C92.2638 31.9762 92.2401 32.029 92.2204 32.1308C92.2007 32.2327 92.1893 32.3447 92.1859 32.4665C92.1821 32.5886 92.1821 32.707 92.1851 32.8208C92.188 32.9354 92.1905 32.9995 92.1916 33.0137C92.1971 33.3997 92.2061 33.7391 92.2178 34.0313C92.23 34.3238 92.2365 34.5988 92.2383 34.8562C92.2395 35.1138 92.2404 35.3714 92.2424 35.629C92.2442 35.8867 92.252 36.1794 92.2668 36.5073C92.2746 36.5925 92.3003 36.6406 92.3444 36.6507C92.3885 36.6613 92.5031 36.6582 92.6886 36.6417C92.8456 36.628 92.9632 36.6211 93.0424 36.6211C93.1213 36.6215 93.1558 36.5646 93.1455 36.4507C93.1034 36.14 93.0632 35.8534 93.0256 35.5917ZM97.0836 41.5559C96.9648 41.5953 96.817 41.6299 96.6396 41.6596C96.4626 41.6899 96.2746 41.7136 96.0746 41.7313C95.8749 41.7491 95.7044 41.7641 95.5617 41.7767C95.2479 41.8046 94.9485 41.8278 94.6627 41.8459C94.377 41.8642 94.213 41.7967 94.1706 41.6425C94.1008 41.3482 94.0417 41.0888 93.9934 40.8638C93.9439 40.6396 93.892 40.4218 93.8375 40.2118C93.7828 40.0021 93.7309 39.7847 93.6824 39.5599C93.6338 39.3354 93.5745 39.0755 93.5049 38.781C93.4803 38.6688 93.4183 38.6173 93.3185 38.6259C93.2333 38.6333 93.1052 38.6448 92.9338 38.6603C92.734 38.6776 92.5771 38.6919 92.4632 38.7019C92.3636 38.7106 92.311 38.7725 92.3075 38.8875C92.305 39.1883 92.3008 39.454 92.2927 39.6834C92.2842 39.9131 92.2788 40.1356 92.2764 40.3504C92.2746 40.5653 92.2728 40.7907 92.2723 41.0274C92.2715 41.2635 92.2715 41.5395 92.271 41.8543C92.2668 41.9692 92.1123 42.0474 91.8069 42.0887C91.5016 42.1303 91.1781 42.1661 90.8357 42.1966C90.7504 42.2038 90.622 42.2153 90.451 42.2308C90.2798 42.2457 90.108 42.2538 89.9359 42.2546C89.7636 42.2558 89.6118 42.2481 89.4812 42.2308C89.3502 42.2137 89.2829 42.184 89.2793 42.1413C89.3813 40.7148 89.4773 39.4145 89.566 38.2396C89.6552 37.0651 89.7356 35.9159 89.8077 34.7928C89.8795 33.6699 89.9527 32.5252 90.0285 31.3587C90.1037 30.1928 90.1794 28.9119 90.2559 27.5161C90.2637 27.444 90.3262 27.381 90.4438 27.3277C90.5606 27.2742 90.7045 27.2293 90.8739 27.1928C91.0427 27.1562 91.2193 27.1267 91.4048 27.1029C91.5892 27.0795 91.7382 27.0624 91.8523 27.0523C91.9812 27.0409 92.134 27.0308 92.3135 27.0222C92.4925 27.0135 92.6606 27.0128 92.8199 27.02C92.9781 27.0274 93.1169 27.0546 93.2362 27.1011C93.3556 27.1481 93.4261 27.2131 93.4474 27.2972C93.7978 28.6404 94.1205 29.8754 94.4152 31.0017C94.7099 32.1282 95.0027 33.2331 95.2933 34.3166C95.5845 35.4006 95.8852 36.5121 96.1952 37.6511C96.5055 38.7904 96.8508 40.0448 97.2322 41.4139C97.2512 41.4694 97.2017 41.5168 97.0836 41.5559Z" fill="white"/>
<path d="M106.463 40.6477C106.46 40.6984 106.41 40.7382 106.312 40.7686C106.214 40.7987 106.059 40.827 105.846 40.8529C105.633 40.8792 105.319 40.9105 104.905 40.9473C104.506 40.9826 104.238 40.9992 104.102 40.997C103.965 40.995 103.853 40.9046 103.765 40.7261C103.516 40.19 103.309 39.7217 103.144 39.3211C102.979 38.9207 102.817 38.5271 102.661 38.14C102.504 37.7531 102.337 37.3313 102.16 36.8745C101.982 36.4177 101.763 35.8573 101.503 35.1935C101.429 35.0138 101.343 34.8174 101.246 34.6041C101.148 34.3912 101.056 34.2882 100.97 34.2958C100.87 34.3046 100.832 34.4366 100.855 34.6926C100.876 34.9341 100.896 35.1615 100.916 35.3744L101.409 40.8924C101.417 40.9777 101.412 41.0464 101.395 41.0975C101.378 41.1496 101.317 41.1906 101.212 41.2214C101.107 41.2521 100.944 41.2811 100.724 41.3077C100.503 41.3346 100.186 41.3663 99.7737 41.4028C99.3888 41.4369 99.0959 41.4597 98.8956 41.4698C98.6957 41.4808 98.5519 41.479 98.4643 41.4653C98.3773 41.4515 98.3276 41.4237 98.3169 41.3818C98.3055 41.3398 98.2972 41.2834 98.2907 41.2121L97.0219 27.0226C97.0129 26.9232 97.0098 26.8484 97.0129 26.798C97.015 26.7478 97.0583 26.7079 97.1423 26.6791C97.2258 26.6503 97.3667 26.6235 97.5657 26.5984C97.7644 26.5739 98.0568 26.5442 98.4417 26.51C98.741 26.4835 98.9797 26.4662 99.1587 26.4572C99.3376 26.4486 99.4743 26.4543 99.5703 26.4741C99.6652 26.4945 99.7332 26.5278 99.7732 26.5745C99.8131 26.6213 99.852 26.6928 99.8894 26.7895C99.9653 26.9976 100.086 27.309 100.253 27.7239C100.419 28.1383 100.604 28.5982 100.808 29.1025C101.01 29.6073 101.226 30.132 101.455 30.6772C101.683 31.2225 101.896 31.7225 102.095 32.1773C102.134 32.2884 102.184 32.4093 102.246 32.5395C102.308 32.6701 102.375 32.7323 102.446 32.726C102.546 32.717 102.59 32.6056 102.578 32.392C102.566 32.1782 102.553 31.9936 102.539 31.837L102.069 26.5747C102.06 26.4754 102.063 26.3998 102.081 26.3481C102.098 26.2965 102.151 26.256 102.242 26.2263C102.333 26.1968 102.481 26.1694 102.687 26.1438C102.893 26.1188 103.189 26.0885 103.574 26.0543C103.987 26.0179 104.305 25.9934 104.526 25.9806C104.748 25.9684 104.906 25.972 105.001 25.9921C105.096 26.0127 105.15 26.0471 105.162 26.0961C105.173 26.1454 105.183 26.2194 105.192 26.3185L106.456 40.4446C106.463 40.5296 106.466 40.5977 106.463 40.6477Z" fill="white"/>
<path d="M113.712 39.2422C113.134 39.909 112.284 40.2923 111.161 40.3921C110.62 40.44 110.123 40.402 109.668 40.2775C109.213 40.1536 108.815 39.9526 108.475 39.675C108.135 39.3974 107.86 39.0496 107.651 38.6312C107.442 38.2133 107.314 37.7415 107.267 37.2157L107.189 36.3423C107.175 36.1863 107.168 36.0649 107.167 35.979C107.166 35.8932 107.207 35.8253 107.288 35.7751C107.369 35.725 107.508 35.6877 107.705 35.6629C107.903 35.6384 108.193 35.6088 108.575 35.5751C108.957 35.5409 109.247 35.5227 109.447 35.5189C109.647 35.5157 109.791 35.5316 109.879 35.5665C109.968 35.6014 110.019 35.6614 110.035 35.7463C110.049 35.8307 110.063 35.944 110.075 36.0858C110.102 36.3845 110.171 36.6682 110.283 36.9373C110.394 37.2067 110.596 37.3285 110.885 37.3026C111.044 37.2887 111.167 37.2384 111.254 37.1518C111.341 37.0653 111.402 36.9598 111.434 36.8353C111.467 36.7107 111.483 36.573 111.484 36.4226C111.486 36.2722 111.48 36.1189 111.465 35.9626C111.43 35.5652 111.388 35.1034 111.342 34.5776C111.294 34.0383 111.243 33.4698 111.189 32.8733C111.135 32.2626 111.079 31.6448 111.023 31.0196C110.966 30.3805 110.911 29.7627 110.858 29.1663C110.803 28.5554 110.752 27.9873 110.705 27.4617C110.657 26.9221 110.615 26.4532 110.579 26.0553C110.567 25.9137 110.567 25.799 110.581 25.7118C110.595 25.6246 110.646 25.5554 110.733 25.5046C110.821 25.4542 110.957 25.4135 111.14 25.3831C111.322 25.3528 111.569 25.3233 111.881 25.2957C112.277 25.2606 112.581 25.2372 112.794 25.2253C113.008 25.2137 113.161 25.2247 113.257 25.2591C113.353 25.2939 113.408 25.3532 113.423 25.4378C113.438 25.5227 113.453 25.6432 113.466 25.7993L114.43 36.5799C114.529 37.6878 114.29 38.5753 113.712 39.2422Z" fill="white"/>
<path d="M119.551 33.5908C119.507 33.0938 119.464 32.6109 119.422 32.1422C119.38 31.6733 119.336 31.1906 119.292 30.6933C119.248 30.1965 119.199 29.6494 119.146 29.0527C119.133 28.9111 119.119 28.762 119.106 28.6054C119.092 28.4493 119.065 28.3122 119.024 28.1938C118.984 28.076 118.926 27.9809 118.846 27.9091C118.766 27.8376 118.646 27.8086 118.486 27.8228C118.326 27.837 118.21 27.8871 118.136 27.9719C118.063 28.0573 118.018 28.1618 118 28.285C117.982 28.408 117.983 28.5478 118.004 28.7032C118.025 28.859 118.042 29.0078 118.055 29.1496L118.608 35.3283C118.622 35.4845 118.631 35.6376 118.638 35.7874C118.644 35.9373 118.667 36.0711 118.706 36.1893C118.747 36.3074 118.81 36.402 118.897 36.4728C118.984 36.544 119.107 36.5724 119.267 36.5582C119.427 36.544 119.54 36.4948 119.605 36.4101C119.671 36.3256 119.713 36.2217 119.731 36.0983C119.75 35.9751 119.753 35.8422 119.74 35.7001C119.726 35.5441 119.712 35.3879 119.698 35.2316C119.645 34.6348 119.596 34.0883 119.551 33.5908ZM122.17 38.4909C121.542 39.1625 120.667 39.5479 119.543 39.6474C119.003 39.6954 118.498 39.6582 118.029 39.5351C117.559 39.4123 117.144 39.2131 116.782 38.9371C116.421 38.6613 116.129 38.3153 115.905 37.8983C115.682 37.4815 115.547 37.0103 115.499 36.4847L114.791 28.5588C114.744 28.0339 114.793 27.5461 114.939 27.0962C115.085 26.6467 115.311 26.2546 115.619 25.9192C115.925 25.5844 116.299 25.3151 116.739 25.1112C117.179 24.9074 117.67 24.7815 118.21 24.7334C119.333 24.6338 120.263 24.8593 121 25.4093C121.736 25.9596 122.155 26.7887 122.254 27.8965L122.962 35.8222C123.061 36.93 122.797 37.82 122.17 38.4909Z" fill="white"/>
</svg>
