<svg width="121" height="120" viewBox="0 0 121 120" fill="none" xmlns="http://www.w3.org/2000/svg">
<path d="M82.215 0.00138092C61.1629 -0.172211 42.4217 17.3033 42.2659 36.2085C42.1471 50.8008 55.6014 61.9939 71.4259 66.4244L68.3863 75.2739L77.0703 67.6965C79.9634 68.195 82.8886 68.4738 85.7859 68.4981C106.838 68.671 120.845 49.9282 120.999 31.0238C121.155 12.1191 103.266 0.174973 82.215 0.00138092Z" fill="#80CC28"/>
<path d="M71.7439 116.951C67.8638 116.951 64.7055 113.786 64.7055 109.893C64.7055 107.628 65.7789 105.614 67.439 104.322L70.8623 110.394C71.0484 110.725 71.3918 110.909 71.7447 110.909C71.9137 110.909 72.0853 110.867 72.2436 110.778C72.7304 110.501 72.902 109.882 72.6263 109.393L69.203 103.319C69.9926 103.011 70.8471 102.835 71.7439 102.835C75.6259 102.835 78.7841 106.001 78.7841 109.893C78.7841 113.786 75.6259 116.951 71.7439 116.951ZM58.1325 105.124L59.2536 99.9812C59.2575 99.9625 59.2565 99.9429 59.2601 99.9219C59.2735 99.8488 59.281 99.7726 59.2859 99.6983C59.2908 99.6376 59.2963 99.577 59.2955 99.5156C59.295 99.4503 59.287 99.3856 59.2797 99.32C59.2715 99.2521 59.2655 99.1853 59.2518 99.1202C59.2384 99.0606 59.2185 99.0024 59.1994 98.9438C59.1795 98.8783 59.1603 98.8135 59.1335 98.7508C59.1082 98.693 59.0771 98.6373 59.0459 98.5808C59.0154 98.5225 58.9854 98.4655 58.9492 98.4116C58.9138 98.3583 58.8712 98.308 58.8299 98.2585C58.7867 98.2064 58.7441 98.1543 58.6968 98.1069C58.6537 98.0637 58.6069 98.0271 58.5601 97.9888C58.5028 97.9403 58.4441 97.8934 58.3805 97.8525C58.3637 97.8406 58.3498 97.8261 58.3333 97.8149L52.122 93.9962L56.0166 88.8959L56.006 91.1752C56.0026 92.1216 56.6522 92.9476 57.5731 93.1622L64.9758 94.895V99.2161L58.1325 105.124ZM40.9019 116.951C37.0207 116.951 33.8622 113.786 33.8622 109.893C33.8622 106.001 37.0207 102.835 40.9019 102.835C41.7886 102.835 42.6343 103.007 43.4154 103.308L40.0169 109.398C39.8412 109.714 39.8453 110.101 40.0306 110.412C40.212 110.721 40.5445 110.909 40.9019 110.909H40.9122L47.871 110.834C47.4103 114.282 44.4645 116.951 40.9019 116.951ZM47.8459 108.788L42.6413 108.858L45.1833 104.304C46.5786 105.38 47.5578 106.969 47.8459 108.788ZM48.309 98.7015L53.4193 107.71L53.201 108.715L50.9119 108.746C50.5779 105.804 48.9808 103.246 46.6791 101.624L48.309 98.7015ZM54.0666 104.74L49.9045 97.4027L54.9854 100.525L54.0666 104.74ZM71.7439 99.7866C70.304 99.7866 68.9363 100.095 67.6956 100.645L67.0026 99.4153V95.0996C67.6844 94.903 68.2464 94.3581 68.4177 93.6153C68.672 92.5217 67.995 91.4293 66.9046 91.1731L60.0675 89.5714L60.0952 82.7821C60.0967 82.5777 60.058 82.3829 60.0019 82.1966C62.3413 82.1681 64.2314 80.2617 64.2314 77.9081C64.2314 75.5374 62.3157 73.616 59.9515 73.616C57.5868 73.616 55.6693 75.5374 55.6693 77.9081C55.6693 78.6794 55.8897 79.3917 56.2427 80.0156C55.4778 80.1228 54.7523 80.5164 54.2456 81.1809L46.1476 91.7934C45.1277 93.1313 45.3815 95.0439 46.715 96.0679C46.8902 96.2023 47.0793 96.3081 47.2713 96.398L44.913 100.627C43.6826 100.088 42.3266 99.7866 40.9019 99.7866C35.3427 99.7866 30.8218 104.321 30.8218 109.893C30.8218 115.466 35.3427 120 40.9019 120C46.1543 120 50.4763 115.948 50.936 110.8L53.4356 110.772C53.7175 111.169 54.1366 111.472 54.6495 111.584C54.7952 111.616 54.9412 111.629 55.0846 111.629C56.0166 111.629 56.855 110.982 57.062 110.032L57.4119 108.427L65.7143 101.261L65.9334 101.65C63.3552 103.482 61.6636 106.492 61.6636 109.893C61.6636 115.466 66.1858 120 71.7439 120C77.302 120 81.8253 115.466 81.8253 109.893C81.8253 104.321 77.302 99.7866 71.7439 99.7866Z" fill="#00ADEF"/>
<path d="M52.4805 81.9987C52.4805 81.9987 48.0884 78.2714 43.0218 86.402C40.5578 90.355 39.9294 91.8105 39.9346 92.2645C39.9387 92.7433 50.116 87.7573 50.116 87.7573L54.5067 83.6924L52.4805 81.9987Z" fill="#00ADEF"/>
<path d="M56.8373 72.1936C56.914 72.2027 57.0109 72.2084 57.1316 72.2084C57.7075 72.2084 58.4946 72.0771 59.2891 71.848C60.4423 71.5166 61.2073 71.1049 61.5528 70.8383C61.475 70.8313 61.3761 70.8254 61.2562 70.8254C60.6813 70.8254 59.8953 70.9562 59.0997 71.185C57.9478 71.5166 57.1817 71.9289 56.8373 72.1936ZM57.1316 73.2251C56.2887 73.2251 55.7937 72.9909 55.6637 72.532C55.5278 72.0584 55.8482 71.5837 56.6148 71.1205C57.1822 70.7775 57.9654 70.4533 58.8204 70.2082C59.7144 69.9509 60.58 69.809 61.2562 69.809C62.1008 69.809 62.5954 70.0411 62.7259 70.501C63.0824 71.7459 60.1588 72.6559 59.5697 72.8253C58.6734 73.0826 57.8085 73.2251 57.1316 73.2251Z" fill="#00ADEF"/>
<path d="M64.2711 28.089C64.253 27.8854 64.2334 27.6703 64.214 27.4457C64.1943 27.2208 64.1548 27.0239 64.098 26.8539C64.0416 26.6837 63.9556 26.5474 63.8411 26.4443C63.7277 26.3415 63.5564 26.2997 63.328 26.3202C63.0166 26.3482 62.8094 26.3772 62.7073 26.4065C62.6048 26.4365 62.5632 26.5534 62.5818 26.7576L62.9001 30.3429C62.9187 30.5476 62.9536 30.6579 63.0084 30.6732C63.0611 30.6893 63.2954 30.6784 63.7125 30.6413C64.0442 30.6118 64.2499 30.5004 64.3264 30.3084C64.4039 30.1162 64.422 29.7853 64.3801 29.3151L64.2711 28.089ZM63.4166 19.8564C63.398 19.6527 63.3791 19.4379 63.3595 19.2128C63.3391 18.9881 63.3009 18.791 63.2435 18.6207C63.1856 18.4516 63.1003 18.3145 62.9869 18.2114C62.8725 18.1088 62.7011 18.0668 62.472 18.0873C62.2009 18.1116 62.0252 18.1381 61.9443 18.1655C61.8622 18.1935 61.8306 18.3098 61.8487 18.5135L62.149 21.8848C62.1668 22.0895 62.2288 22.1975 62.3345 22.2082C62.4404 22.2193 62.6074 22.2144 62.8368 22.1939C63.1908 22.1625 63.398 22.0154 63.4585 21.7524C63.5189 21.4897 63.5427 21.2765 63.5285 21.1127L63.4166 19.8564ZM67.8603 33.4211C66.9635 34.3873 65.7121 34.9415 64.1073 35.085L59.6886 35.4796C59.4646 35.4996 59.2918 35.5099 59.1688 35.5107C59.0458 35.5115 58.9515 35.489 58.8864 35.4434C58.8205 35.3978 58.7776 35.3141 58.7561 35.192C58.7349 35.0708 58.714 34.8874 58.6923 34.642L56.9495 15.0287C56.9294 14.8038 56.9188 14.6297 56.9185 14.5061C56.9172 14.3825 56.9449 14.2877 57.0001 14.2211C57.0562 14.154 57.1441 14.1107 57.265 14.0895C57.3862 14.0682 57.5583 14.0475 57.7818 14.0276L62.079 13.6436C63.6835 13.5001 65.0129 13.8247 66.0658 14.6157C67.1195 15.4072 67.7166 16.5996 67.8577 18.193L68.0761 20.6448C68.1376 21.3394 68.0678 21.8866 67.8681 22.2851C67.667 22.6841 67.4316 22.9883 67.1632 23.1974C66.8937 23.407 66.6446 23.5477 66.4152 23.6197C66.1852 23.6917 66.0725 23.7482 66.0759 23.7886C66.0795 23.8301 66.2056 23.8601 66.4537 23.8785C66.7017 23.8979 66.9857 23.9754 67.3063 24.1112C67.626 24.2477 67.9244 24.4838 68.2009 24.819C68.4771 25.1548 68.644 25.6497 68.7021 26.3034L68.9936 29.5824C69.1352 31.1759 68.7574 32.456 67.8603 33.4211Z" fill="white"/>
<path d="M75.9443 33.7958C75.9205 33.8701 75.8345 33.9289 75.6851 33.9735C75.5358 34.0175 75.305 34.0587 74.9929 34.0971C74.68 34.1352 74.2299 34.1805 73.6431 34.2328C73.0966 34.2816 72.6762 34.3145 72.3812 34.3303C72.0871 34.3463 71.868 34.3453 71.7238 34.3269C71.5789 34.3093 71.4936 34.2704 71.468 34.2108C71.4424 34.1517 71.4254 34.0709 71.4169 33.9688L69.6033 13.5583C69.5903 13.4156 69.5947 13.307 69.6195 13.2321C69.6436 13.1583 69.7201 13.1 69.8487 13.0572C69.9779 13.0152 70.1882 12.9761 70.4807 12.9393C70.7732 12.9028 71.1928 12.8603 71.7393 12.8111C72.3256 12.7587 72.7819 12.7235 73.1067 12.7046C73.4318 12.6862 73.672 12.6903 73.8273 12.7176C73.9831 12.745 74.0736 12.7935 74.1002 12.8629C74.1265 12.9329 74.147 13.0393 74.1599 13.1818L75.9647 33.5006C75.9758 33.6229 75.9691 33.7217 75.9443 33.7958Z" fill="white"/>
<path d="M90.7519 32.4724C90.7356 32.5252 90.663 32.5731 90.5335 32.6154C90.4038 32.6579 90.1824 32.7037 89.8677 32.7522C89.5537 32.8011 89.1114 32.8504 88.5409 32.9017C88.0114 32.9491 87.5833 32.9872 87.2577 33.0162C86.9526 33.0434 86.7113 33.0548 86.5371 33.0496C86.3617 33.0452 86.2415 33.0144 86.1741 32.9584C86.1077 32.9027 86.0591 32.8146 86.0276 32.6936C85.7511 31.8951 85.4953 31.1557 85.2609 30.4766C85.0258 29.7975 84.7912 29.1283 84.5592 28.4696C84.3256 27.8108 84.0972 27.147 83.8739 26.4767C83.6497 25.807 83.398 25.0628 83.121 24.2426C83.0665 24.1034 82.9905 24.0537 82.8916 24.0931C82.7918 24.133 82.6691 24.3656 82.5223 24.7903C82.3926 25.1932 82.35 25.6295 82.3918 26.0995L82.9913 32.8416C83.0024 32.9641 82.935 33.068 82.7892 33.1527C82.6435 33.2385 82.4567 33.3116 82.2275 33.373C81.9981 33.4351 81.7526 33.4828 81.4898 33.5162C81.2281 33.5499 80.986 33.5766 80.7635 33.5966C80.5607 33.6144 80.3276 33.6305 80.0635 33.6435C79.7989 33.6569 79.5491 33.6585 79.3147 33.6489C79.0786 33.6388 78.8765 33.6059 78.7088 33.5486C78.5406 33.4914 78.452 33.4121 78.4424 33.3097L76.6213 12.8075C76.612 12.7052 76.6914 12.621 76.8583 12.5544C77.0254 12.4883 77.2301 12.429 77.4706 12.3761C77.7102 12.324 77.9556 12.2818 78.2081 12.2487C78.4605 12.216 78.6675 12.1919 78.8295 12.1777C79.0111 12.1613 79.2339 12.1414 79.4972 12.1178C79.7599 12.0942 80.0139 12.0872 80.2602 12.096C80.5059 12.1049 80.7172 12.1323 80.8948 12.1784C81.072 12.224 81.1666 12.3088 81.1777 12.4311L81.8368 19.8476C81.8461 19.9499 81.8583 20.0927 81.8745 20.2764C81.8888 20.4401 81.9451 20.4969 82.044 20.4466C82.0823 20.4233 82.1112 20.3432 82.1301 20.2072C82.149 20.0719 82.1738 19.9517 82.2061 19.8455C82.3443 19.0918 82.4737 18.4114 82.5942 17.8028C82.7148 17.1952 82.8259 16.5985 82.9282 16.0122C83.0306 15.4269 83.1362 14.8253 83.2453 14.2082C83.3546 13.5907 83.4884 12.9042 83.6478 12.1489C83.6608 12.0657 83.6905 12.001 83.738 11.9551C83.785 11.9098 83.8848 11.8704 84.0359 11.8359C84.1868 11.8022 84.4049 11.7722 84.6897 11.7468C84.9958 11.7196 85.4129 11.6823 85.9431 11.6351C86.4932 11.5859 86.9322 11.5517 87.2585 11.5328C87.5851 11.5141 87.8316 11.5121 87.998 11.5286C88.1631 11.5444 88.2732 11.5711 88.3277 11.6066C88.3825 11.6437 88.4011 11.6831 88.3851 11.7255C88.1719 12.5684 87.9851 13.2956 87.8238 13.9071C87.6629 14.5191 87.5094 15.1041 87.3644 15.6622C87.2177 16.2213 87.0593 16.7968 86.8851 17.3885C86.712 17.9811 86.5084 18.6892 86.273 19.5128C86.227 19.682 86.1759 19.8569 86.1195 20.0362C86.0632 20.2165 86.0436 20.3883 86.0583 20.5513C86.071 20.6945 86.0966 20.8158 86.1366 20.915C86.1759 21.0148 86.2748 21.2532 86.4306 21.6304C86.8477 22.623 87.2203 23.5316 87.551 24.3566C87.8812 25.182 88.2101 26.0018 88.5391 26.8164C88.8693 27.6317 89.2062 28.4821 89.5522 29.3671C89.8974 30.2527 90.2937 31.2425 90.74 32.3345C90.7638 32.3739 90.7679 32.4198 90.7519 32.4724Z" fill="white"/>
<path d="M101.155 30.8173C101.172 31.1248 101.176 31.3461 101.167 31.4805C101.159 31.615 101.13 31.6995 101.083 31.735C101.034 31.7702 100.969 31.7914 100.888 31.7987L93.7272 32.4384C93.4833 32.4599 93.2463 32.4863 93.0153 32.5174C92.7825 32.5483 92.612 32.5179 92.5019 32.4244C92.3715 32.3332 92.2973 32.1853 92.2795 31.9811C92.2609 31.7772 92.2436 31.5826 92.2275 31.3987L90.5062 12.0302C90.4881 11.8263 90.4865 11.6926 90.5008 11.6291C90.5155 11.5662 90.5682 11.469 90.6589 11.3371C90.7491 11.2055 90.8436 11.1255 90.9434 11.0957C91.0431 11.0666 91.1736 11.0444 91.3356 11.0296L98.9205 10.3521C99.0024 10.3446 99.0696 10.3541 99.1233 10.3803C99.177 10.4062 99.2248 10.479 99.2657 10.5987C99.3075 10.7187 99.3401 10.9122 99.3638 11.1775C99.3868 11.4429 99.4202 11.8105 99.462 12.2805C99.5104 12.8324 99.5499 13.2718 99.5788 13.5982C99.606 13.905 99.6111 14.1359 99.5941 14.2918C99.577 14.4478 99.5445 14.5434 99.4969 14.5786C99.4483 14.6139 99.3732 14.6362 99.2719 14.6452L96.2152 14.9183C96.0932 14.9289 95.956 14.9517 95.8051 14.9857C95.6542 15.0199 95.5612 15.0691 95.5261 15.1341C95.4537 15.244 95.4137 15.3194 95.4077 15.3608C95.4007 15.4031 95.407 15.5261 95.4248 15.7301L95.6232 17.9673C95.6361 18.1106 95.6491 18.2534 95.662 18.3964C95.6746 18.5397 95.7462 18.6565 95.8775 18.7477C95.9868 18.8205 96.0924 18.8519 96.1945 18.843C96.3167 18.8319 96.4387 18.821 96.5612 18.8101L98.0585 18.6765C98.1396 18.6689 98.2076 18.6788 98.2613 18.7044C98.3143 18.7309 98.3577 18.8145 98.391 18.9558C98.4241 19.0967 98.4549 19.3206 98.4815 19.6271C98.507 19.9131 98.5427 20.3118 98.5879 20.8223C98.6316 21.3125 98.6665 21.7006 98.6918 21.9869C98.715 22.2524 98.7287 22.4571 98.7313 22.6009C98.7331 22.7452 98.7099 22.8346 98.6621 22.8699C98.6145 22.9048 98.5386 22.9271 98.437 22.9362L97.0619 23.0593C96.8981 23.0738 96.7464 23.0924 96.6048 23.1152C96.4622 23.1385 96.3635 23.173 96.3056 23.2191C96.1725 23.3344 96.1121 23.4634 96.1247 23.6059C96.1377 23.749 96.1529 23.9231 96.171 24.127L96.3968 26.6707C96.4157 26.8752 96.4395 27.0946 96.471 27.3281C96.5017 27.5625 96.5596 27.6962 96.6449 27.7297C96.7301 27.7633 96.8658 27.7823 97.0508 27.7861C97.2358 27.7903 97.4097 27.7848 97.5725 27.7703L100.477 27.511C100.558 27.5037 100.631 27.5125 100.694 27.5379C100.758 27.5628 100.806 27.6413 100.838 27.7721C100.869 27.9032 100.904 28.1059 100.939 28.381C100.974 28.6559 101.013 29.0383 101.056 29.5285C101.105 30.0804 101.138 30.51 101.155 30.8173Z" fill="white"/>
<path d="M65.2976 49.6972C65.2439 49.3215 65.1852 48.9456 65.1203 48.5702C65.0565 48.195 64.9901 47.7893 64.9198 47.3527C64.8501 46.9161 64.7674 46.393 64.6726 45.7839C64.6695 45.743 64.6558 45.6515 64.6328 45.5093C64.6095 45.3675 64.5764 45.2209 64.532 45.0706C64.4886 44.9198 64.4449 44.7851 64.4041 44.6651C64.3625 44.5452 64.3113 44.4879 64.2501 44.4934C64.2088 44.4967 64.1749 44.5726 64.1468 44.719C64.1186 44.8657 64.1023 45.0268 64.0974 45.202C64.092 45.3776 64.092 45.5479 64.0964 45.7116C64.1005 45.8764 64.1041 45.9686 64.1057 45.9891C64.1134 46.5443 64.1263 47.0325 64.1431 47.4527C64.1604 47.8735 64.1698 48.2691 64.1723 48.6394C64.1741 49.0099 64.1754 49.3804 64.1783 49.7509C64.1809 50.1216 64.192 50.5427 64.2132 51.0142C64.2243 51.1368 64.261 51.2059 64.324 51.2204C64.387 51.2357 64.5509 51.2313 64.816 51.2075C65.0402 51.1878 65.2085 51.1779 65.3216 51.1779C65.4343 51.1785 65.4836 51.0966 65.4689 50.9328C65.4087 50.4859 65.3513 50.0737 65.2976 49.6972ZM71.0973 58.276C70.9275 58.3328 70.7162 58.3825 70.4627 58.4253C70.2097 58.4688 69.941 58.503 69.6552 58.5284C69.3697 58.554 69.1261 58.5756 68.9222 58.5937C68.4737 58.6338 68.0458 58.6673 67.6373 58.6932C67.229 58.7196 66.9947 58.6224 66.9339 58.4007C66.8342 57.9773 66.7497 57.6042 66.6807 57.2806C66.6099 56.958 66.5358 56.6448 66.458 56.3427C66.3797 56.0411 66.3056 55.7284 66.2363 55.405C66.1668 55.0822 66.0821 54.7083 65.9826 54.2847C65.9474 54.1233 65.8588 54.0492 65.7162 54.0616C65.5945 54.0723 65.4113 54.0888 65.1663 54.1111C64.8808 54.136 64.6565 54.1565 64.4938 54.171C64.3514 54.1834 64.2762 54.2725 64.2713 54.4378C64.2677 54.8705 64.2617 55.2527 64.2501 55.5828C64.238 55.9131 64.2302 56.2331 64.2269 56.5422C64.2243 56.8513 64.2217 57.1754 64.2209 57.5159C64.2199 57.8555 64.2199 58.2525 64.2191 58.7054C64.2132 58.8707 63.9922 58.9831 63.5558 59.0424C63.1194 59.1023 62.6572 59.1538 62.1678 59.1976C62.0458 59.208 61.8624 59.2246 61.6179 59.2469C61.3733 59.2684 61.1278 59.28 60.8818 59.2811C60.6356 59.2829 60.4185 59.2717 60.232 59.2469C60.0446 59.2222 59.9485 59.1795 59.9434 59.1181C60.0891 57.0663 60.2263 55.1959 60.3532 53.5059C60.4805 51.8166 60.5955 50.1636 60.6986 48.5482C60.8012 46.933 60.9058 45.2864 61.0141 43.6086C61.1216 41.9315 61.2299 40.0891 61.3392 38.0814C61.3503 37.9777 61.4397 37.887 61.6076 37.8103C61.7745 37.7334 61.9802 37.6689 62.2223 37.6163C62.4636 37.5637 62.7161 37.5212 62.9812 37.487C63.2447 37.4533 63.4576 37.4287 63.6207 37.4142C63.8049 37.3979 64.0232 37.3834 64.2798 37.3709C64.5356 37.3585 64.7759 37.3574 65.0036 37.3678C65.2296 37.3784 65.4281 37.4176 65.5986 37.4844C65.7691 37.552 65.8699 37.6456 65.9004 37.7666C66.4012 39.6986 66.8624 41.4749 67.2835 43.095C67.7047 44.7154 68.1233 46.3047 68.5385 47.8631C68.9548 49.4223 69.3845 51.0212 69.8276 52.6594C70.271 54.2982 70.7645 56.1025 71.3097 58.0719C71.3368 58.1517 71.266 58.2198 71.0973 58.276Z" fill="white"/>
<path d="M84.5035 56.9698C84.4994 57.0426 84.4276 57.0999 84.2878 57.1437C84.148 57.1869 83.9263 57.2276 83.6209 57.2649C83.3168 57.3027 82.8682 57.3478 82.2773 57.4007C81.7068 57.4515 81.3241 57.4753 81.129 57.4722C80.9337 57.4693 80.7732 57.3393 80.6479 57.0825C80.2908 56.3115 79.9958 55.6378 79.7596 55.0616C79.5234 54.4856 79.2932 53.9195 79.0689 53.3627C78.8457 52.8062 78.6067 52.1994 78.3537 51.5423C78.0995 50.8853 77.7866 50.0793 77.414 49.1245C77.3093 48.8659 77.1863 48.5835 77.0466 48.2767C76.9068 47.9705 76.7753 47.8223 76.6533 47.8332C76.5101 47.8459 76.4556 48.0358 76.4882 48.404C76.5187 48.7514 76.5476 49.0784 76.575 49.3846L77.2809 57.3217C77.2912 57.4445 77.2845 57.5432 77.2605 57.6168C77.2365 57.6916 77.1486 57.7507 76.9988 57.795C76.8486 57.8391 76.6161 57.8808 76.3014 57.9191C75.9856 57.9577 75.5329 58.0033 74.943 58.0559C74.3929 58.1049 73.9744 58.1378 73.6881 58.1523C73.4023 58.1681 73.1969 58.1655 73.0716 58.1458C72.9473 58.1259 72.8762 58.086 72.861 58.0256C72.8447 57.9652 72.8328 57.8841 72.8235 57.7815L71.0102 37.3715C70.9973 37.2285 70.9929 37.121 70.9973 37.0485C71.0004 36.9762 71.0621 36.9189 71.1823 36.8775C71.3016 36.836 71.5029 36.7974 71.7874 36.7614C72.0714 36.7261 72.4892 36.6834 73.0393 36.6342C73.4672 36.5961 73.8082 36.5712 74.064 36.5583C74.3198 36.5458 74.5152 36.5541 74.6524 36.5826C74.788 36.6119 74.8852 36.6598 74.9423 36.7269C74.9994 36.7943 75.0549 36.8972 75.1084 37.0363C75.2169 37.3355 75.3898 37.7835 75.6278 38.3802C75.8657 38.9764 76.1298 39.6378 76.4207 40.3633C76.7107 41.0893 77.0192 41.844 77.3458 42.6283C77.6716 43.4125 77.9767 44.1318 78.2607 44.786C78.316 44.9459 78.3883 45.1197 78.4762 45.307C78.5651 45.4949 78.6604 45.5843 78.7627 45.5752C78.9051 45.5622 78.9674 45.4021 78.9514 45.0948C78.9335 44.7873 78.9155 44.5217 78.895 44.2966L78.2232 36.7272C78.2103 36.5844 78.2152 36.4756 78.24 36.4012C78.2648 36.3271 78.3408 36.2689 78.4713 36.2261C78.601 36.1836 78.8124 36.1442 79.1072 36.1074C79.4015 36.0714 79.8244 36.0279 80.3743 35.9787C80.9652 35.9263 81.4187 35.8911 81.7357 35.8727C82.0522 35.8551 82.2781 35.8603 82.4145 35.8893C82.5501 35.9188 82.6269 35.9683 82.6439 36.0388C82.66 36.1098 82.6747 36.2163 82.6873 36.3588L84.4932 56.6776C84.5035 56.7998 84.5077 56.8978 84.5035 56.9698Z" fill="white"/>
<path d="M94.8628 54.948C94.0368 55.9072 92.8218 56.4585 91.2173 56.6021C90.4445 56.671 89.7334 56.6163 89.083 56.4373C88.4324 56.259 87.8647 55.9699 87.3787 55.5706C86.8927 55.1713 86.4997 54.671 86.2005 54.0692C85.9018 53.4681 85.7186 52.7895 85.6514 52.0332L85.5395 50.7769C85.5199 50.5525 85.5098 50.3779 85.5088 50.2543C85.508 50.131 85.5662 50.0333 85.6811 49.961C85.7969 49.889 85.9959 49.8353 86.2777 49.7996C86.5609 49.7643 86.9746 49.7219 87.5211 49.6734C88.0665 49.6242 88.482 49.598 88.7675 49.5926C89.0525 49.5879 89.2587 49.6107 89.3848 49.661C89.5119 49.7112 89.5851 49.7975 89.6073 49.9195C89.6277 50.0411 89.6473 50.204 89.6654 50.4079C89.7037 50.8375 89.8026 51.2456 89.962 51.6327C90.1215 52.0203 90.4091 52.1954 90.8222 52.1581C91.0498 52.1381 91.2258 52.0659 91.3501 51.9412C91.4746 51.8169 91.5609 51.665 91.6074 51.486C91.6537 51.3067 91.6775 51.1088 91.6793 50.8924C91.6811 50.6761 91.6723 50.4556 91.6519 50.2307C91.6018 49.6592 91.5421 48.9948 91.4757 48.2386C91.4064 47.4628 91.3341 46.6451 91.2573 45.787C91.1796 44.9087 91.1005 44.02 91.0201 43.1207C90.9385 42.2014 90.8599 41.3128 90.784 40.4549C90.7054 39.5763 90.6331 38.7591 90.5656 38.0031C90.4969 37.2269 90.437 36.5525 90.3858 35.9801C90.368 35.7765 90.368 35.6114 90.3876 35.486C90.408 35.3606 90.4804 35.2611 90.6057 35.1881C90.7313 35.1155 90.9256 35.057 91.1865 35.0132C91.4472 34.9697 91.8005 34.9272 92.2454 34.8875C92.8125 34.837 93.2472 34.8033 93.5515 34.7862C93.8562 34.7696 94.076 34.7854 94.2132 34.8349C94.3497 34.8849 94.429 34.9702 94.4502 35.0919C94.4714 35.214 94.4921 35.3873 94.5117 35.6119L95.8896 51.1186C96.0312 52.7123 95.6891 53.9888 94.8628 54.948Z" fill="white"/>
<path d="M103.208 46.8191C103.145 46.1043 103.083 45.4097 103.023 44.7355C102.964 44.0611 102.901 43.3667 102.838 42.6514C102.774 41.9368 102.704 41.1499 102.629 40.2915C102.61 40.0879 102.591 39.8734 102.571 39.6482C102.552 39.4236 102.513 39.2264 102.455 39.0562C102.398 38.8867 102.314 38.7499 102.2 38.6466C102.085 38.5437 101.914 38.502 101.685 38.5225C101.457 38.5429 101.291 38.615 101.186 38.737C101.082 38.8598 101.017 39.0101 100.991 39.1873C100.965 39.3643 100.967 39.5653 100.997 39.7889C101.027 40.013 101.052 40.227 101.07 40.4309L101.86 49.3183C101.88 49.543 101.894 49.7632 101.903 49.9788C101.912 50.1943 101.945 50.3868 102.001 50.5568C102.058 50.7267 102.148 50.8628 102.273 50.9646C102.398 51.0669 102.574 51.1079 102.803 51.0874C103.031 51.0669 103.192 50.9962 103.286 50.8744C103.38 50.7529 103.44 50.6034 103.466 50.4259C103.492 50.2487 103.496 50.0575 103.479 49.8531C103.458 49.6287 103.439 49.4041 103.418 49.1792C103.342 48.3208 103.272 47.5347 103.208 46.8191ZM106.951 53.8675C106.054 54.8334 104.803 55.3878 103.197 55.5308C102.425 55.6 101.704 55.5464 101.032 55.3694C100.361 55.1927 99.768 54.9062 99.2512 54.5092C98.7347 54.1126 98.3169 53.6149 97.9972 53.0151C97.6784 52.4155 97.4849 51.7377 97.4174 50.9817L96.4046 39.5811C96.3371 38.8261 96.4079 38.1245 96.6167 37.4773C96.8257 36.8309 97.1487 36.2668 97.588 35.7844C98.0259 35.3027 98.56 34.9154 99.1889 34.6221C99.8183 34.3291 100.519 34.1479 101.291 34.0788C102.896 33.9355 104.225 34.2599 105.279 35.0509C106.331 35.8424 106.929 37.035 107.071 38.6284L108.084 50.0288C108.225 51.6222 107.847 52.9023 106.951 53.8675Z" fill="white"/>
<path d="M40.923 116.951C37.0418 116.951 33.8839 113.786 33.8839 109.893C33.8839 107.628 34.958 105.614 36.6176 104.322L40.0409 110.394C40.2267 110.725 40.5709 110.909 40.9243 110.909C41.0923 110.909 41.2644 110.867 41.4222 110.778C41.9095 110.501 42.0801 109.882 41.8049 109.393L38.3818 103.319C39.1702 103.011 40.0251 102.835 40.923 102.835C44.8037 102.835 47.9617 106.001 47.9617 109.893C47.9617 113.786 44.8037 116.951 40.923 116.951ZM27.3113 105.124L28.432 99.9812C28.4361 99.9625 28.4343 99.9429 28.4384 99.9219C28.4526 99.8488 28.4588 99.7726 28.464 99.6983C28.4692 99.6376 28.4751 99.577 28.4738 99.5156C28.4725 99.4503 28.464 99.3856 28.4578 99.32C28.4495 99.2521 28.4431 99.1853 28.4296 99.1202C28.4162 99.0606 28.3971 99.0024 28.3787 98.9438C28.3575 98.8783 28.3392 98.8135 28.3118 98.7508C28.2875 98.693 28.2552 98.6373 28.225 98.5808C28.1935 98.5225 28.163 98.4655 28.1278 98.4116C28.0917 98.3583 28.049 98.308 28.0072 98.2585C27.9648 98.2064 27.9232 98.1543 27.8749 98.1069C27.8315 98.0637 27.7855 98.0271 27.7384 97.9888C27.6801 97.9403 27.6222 97.8934 27.5596 97.8525C27.5423 97.8406 27.5292 97.8261 27.5121 97.8149L21.3013 93.9962L25.1939 88.8959L25.1851 91.1752C25.1807 92.1216 25.8313 92.9476 26.7512 93.1622L34.1534 94.895V99.2161L27.3113 105.124ZM10.0803 116.951C6.19838 116.951 3.04026 113.786 3.04026 109.893C3.04026 106.001 6.19838 102.835 10.0803 102.835C10.9663 102.835 11.8121 103.007 12.5934 103.308L9.19616 109.398C9.01932 109.714 9.02356 110.101 9.20818 110.412C9.39116 110.721 9.72231 110.909 10.0803 110.909H10.0905L17.0493 110.834C16.5892 114.282 13.6438 116.951 10.0803 116.951ZM17.024 108.788L11.8193 108.858L14.3619 104.304C15.7574 105.38 16.7362 106.969 17.024 108.788ZM17.487 98.7015L22.5971 107.71L22.3785 108.715L20.0898 108.746C19.7562 105.804 18.1588 103.246 15.8572 101.624L17.487 98.7015ZM23.2457 104.74L19.0826 97.4027L24.164 100.525L23.2457 104.74ZM40.923 99.7866C39.4818 99.7866 38.1141 100.095 36.8739 100.645L36.1806 99.4153V95.0996C36.8628 94.903 37.4237 94.3581 37.5968 93.6153C37.8511 92.5217 37.1731 91.4293 36.083 91.1731L29.2459 89.5714L29.2733 82.7821C29.2751 82.5777 29.2358 82.3829 29.18 82.1966C31.5204 82.1681 33.4102 80.2617 33.4102 77.9081C33.4102 75.5374 31.493 73.616 29.1296 73.616C26.7654 73.616 24.8476 75.5374 24.8476 77.9081C24.8476 78.6794 25.0673 79.3917 25.4215 80.0156C24.6564 80.1228 23.9304 80.5164 23.4242 81.1809L15.3257 91.7934C14.3061 93.1313 14.5601 95.0439 15.8931 96.0679C16.0683 96.2023 16.2577 96.3081 16.4507 96.398L14.0911 100.627C12.8608 100.088 11.5051 99.7866 10.0803 99.7866C4.52212 99.7866 0 104.321 0 109.893C0 115.466 4.52212 120 10.0803 120C15.3329 120 19.6554 115.948 20.1135 110.8L22.6139 110.772C22.8961 111.169 23.3152 111.472 23.8275 111.584C23.9738 111.616 24.1193 111.629 24.2629 111.629C25.1939 111.629 26.0334 110.982 26.2409 110.032L26.5902 108.427L34.8923 101.261L35.1112 101.65C32.5343 103.482 30.8435 106.492 30.8435 109.893C30.8435 115.466 35.3652 120 40.923 120C46.4811 120 51.0023 115.466 51.0023 109.893C51.0023 104.321 46.4811 99.7866 40.923 99.7866Z" fill="#F1511B"/>
</svg>
