<?xml version="1.0" standalone="no"?>
<!DOCTYPE svg PUBLIC "-//W3C//DTD SVG 20010904//EN"
 "http://www.w3.org/TR/2001/REC-SVG-20010904/DTD/svg10.dtd">
<svg version="1.0" xmlns="http://www.w3.org/2000/svg"
 width="24.000000pt" height="24.000000pt" viewBox="0 0 24.000000 24.000000"
 preserveAspectRatio="xMidYMid meet">

<g transform="translate(0.000000,24.000000) scale(0.100000,-0.100000)"
fill="#000000" stroke="none">
<path d="M58 193 c-40 -20 -35 -48 12 -81 43 -29 53 -62 20 -62 -11 0 -20 -4
-20 -10 0 -5 23 -10 50 -10 28 0 50 5 50 10 0 6 -9 10 -20 10 -33 0 -23 33 20
62 49 34 52 61 8 82 -38 19 -83 19 -120 -1z m90 -45 c-3 -38 -6 -43 -28 -43
-22 0 -25 5 -28 43 -3 41 -2 42 28 42 30 0 31 -1 28 -42z m-78 1 c0 -11 -4
-17 -10 -14 -5 3 -10 13 -10 21 0 8 5 14 10 14 6 0 10 -9 10 -21z m120 7 c0
-8 -4 -18 -10 -21 -5 -3 -10 3 -10 14 0 12 5 21 10 21 6 0 10 -6 10 -14z"/>
</g>
</svg>
