<?xml version="1.0" standalone="no"?>
<!DOCTYPE svg PUBLIC "-//W3C//DTD SVG 20010904//EN"
 "http://www.w3.org/TR/2001/REC-SVG-20010904/DTD/svg10.dtd">
<svg version="1.0" xmlns="http://www.w3.org/2000/svg"
 width="24.000000pt" height="24.000000pt" viewBox="0 0 24.000000 24.000000"
 preserveAspectRatio="xMidYMid meet">

<g transform="translate(0.000000,24.000000) scale(0.100000,-0.100000)"
fill="#000000" stroke="none">
<path d="M80 195 l-55 -23 0 -74 0 -73 95 0 95 0 0 75 0 75 -65 4 -65 3 40 18
c59 27 19 23 -45 -5z m120 -50 c0 -18 -16 -20 -24 -2 -5 10 -7 10 -12 0 -9
-20 -124 -18 -124 2 0 12 16 15 80 15 64 0 80 -3 80 -15z m0 -70 l0 -35 -80 0
-80 0 0 35 0 35 80 0 80 0 0 -35z"/>
<path d="M63 84 c-8 -21 13 -42 28 -27 13 13 5 43 -11 43 -6 0 -13 -7 -17 -16z"/>
</g>
</svg>
