<svg width="47" height="32" viewBox="0 0 47 32" fill="none" xmlns="http://www.w3.org/2000/svg">
<path d="M10.0833 31.3333C7.36806 31.3333 5.09201 30.4149 3.25521 28.5781C1.4184 26.7413 0.5 24.4652 0.5 21.75C0.5 19.0347 1.43437 16.7586 3.30312 14.9218C5.17188 13.085 7.43194 12.1666 10.0833 12.1666C12.5431 12.1666 14.6115 12.9013 16.2885 14.3708C17.9656 15.8402 19.0278 17.6611 19.475 19.8333H20.7208L17.2708 10.25H13.9167V6.41663H23.5V10.25H21.3917L22.0625 12.1666H31.2625L28.4833 4.49996H23.5V0.666626H28.4833C29.3139 0.666626 30.0566 0.890237 30.7115 1.33746C31.3663 1.78468 31.8375 2.39163 32.125 3.15829L35.3833 12.0708H36.9167C39.5681 12.0708 41.8281 13.0052 43.6969 14.8739C45.5656 16.7427 46.5 19.0027 46.5 21.6541C46.5 24.3375 45.5736 26.6215 43.7208 28.5062C41.8681 30.3909 39.6 31.3333 36.9167 31.3333C34.6167 31.3333 32.5962 30.6145 30.8552 29.177C29.1142 27.7395 28.0042 25.9027 27.525 23.6666H19.475C19.0278 25.8708 17.9417 27.6996 16.2167 29.1531C14.4917 30.6066 12.4472 31.3333 10.0833 31.3333ZM10.0833 27.5C11.3931 27.5 12.5191 27.1406 13.4615 26.4218C14.4038 25.7031 15.0667 24.7847 15.45 23.6666H10.0833V19.8333H15.45C15.0667 18.6833 14.4038 17.7569 13.4615 17.0541C12.5191 16.3513 11.3931 16 10.0833 16C8.45417 16 7.08854 16.551 5.98646 17.6531C4.88437 18.7552 4.33333 20.1208 4.33333 21.75C4.33333 23.3472 4.88437 24.7048 5.98646 25.8229C7.08854 26.9409 8.45417 27.5 10.0833 27.5ZM24.8417 19.8333H27.525C27.6847 19.0986 27.9003 18.4118 28.1719 17.7729C28.4434 17.134 28.8028 16.543 29.25 16H23.4042L24.8417 19.8333ZM36.9167 27.5C38.5458 27.5 39.9115 26.9409 41.0135 25.8229C42.1156 24.7048 42.6667 23.3472 42.6667 21.75C42.6667 20.1208 42.1156 18.7552 41.0135 17.6531C39.9115 16.551 38.5458 16 36.9167 16H36.725L38.6417 21.0791L35 22.4208L33.1792 17.3416C32.5403 17.8847 32.0451 18.5236 31.6937 19.2583C31.3424 19.993 31.1667 20.8236 31.1667 21.75C31.1667 23.3472 31.7177 24.7048 32.8198 25.8229C33.9219 26.9409 35.2875 27.5 36.9167 27.5Z" fill="#1C1B1F"/>
</svg>
