<svg width="47" height="46" viewBox="0 0 47 46" fill="none" xmlns="http://www.w3.org/2000/svg">
<mask id="mask0_647_4792" style="mask-type:alpha" maskUnits="userSpaceOnUse" x="0" y="0" width="47" height="46">
<rect x="0.5" width="46" height="46" fill="#D9D9D9"/>
</mask>
<g mask="url(#mask0_647_4792)">
<path d="M10.0833 38.3334C7.36806 38.3334 5.09201 37.4149 3.25521 35.5781C1.4184 33.7413 0.5 31.4653 0.5 28.75C0.5 26.0347 1.43437 23.7587 3.30312 21.9219C5.17188 20.0851 7.43194 19.1667 10.0833 19.1667C12.5431 19.1667 14.6115 19.9014 16.2885 21.3709C17.9656 22.8403 19.0278 24.6611 19.475 26.8334H20.7208L17.2708 17.25H13.9167V13.4167H23.5V17.25H21.3917L22.0625 19.1667H31.2625L28.4833 11.5H23.5V7.66669H28.4833C29.3139 7.66669 30.0566 7.8903 30.7115 8.33752C31.3663 8.78474 31.8375 9.39169 32.125 10.1584L35.3833 19.0709H36.9167C39.5681 19.0709 41.8281 20.0052 43.6969 21.874C45.5656 23.7427 46.5 26.0028 46.5 28.6542C46.5 31.3375 45.5736 33.6215 43.7208 35.5063C41.8681 37.391 39.6 38.3334 36.9167 38.3334C34.6167 38.3334 32.5962 37.6146 30.8552 36.1771C29.1142 34.7396 28.0042 32.9028 27.525 30.6667H19.475C19.0278 32.8709 17.9417 34.6997 16.2167 36.1531C14.4917 37.6066 12.4472 38.3334 10.0833 38.3334ZM10.0833 34.5C11.3931 34.5 12.5191 34.1406 13.4615 33.4219C14.4038 32.7031 15.0667 31.7847 15.45 30.6667H10.0833V26.8334H15.45C15.0667 25.6834 14.4038 24.757 13.4615 24.0542C12.5191 23.3514 11.3931 23 10.0833 23C8.45417 23 7.08854 23.5511 5.98646 24.6531C4.88437 25.7552 4.33333 27.1209 4.33333 28.75C4.33333 30.3472 4.88437 31.7049 5.98646 32.8229C7.08854 33.941 8.45417 34.5 10.0833 34.5ZM24.8417 26.8334H27.525C27.6847 26.0986 27.9003 25.4118 28.1719 24.7729C28.4434 24.134 28.8028 23.5431 29.25 23H23.4042L24.8417 26.8334ZM36.9167 34.5C38.5458 34.5 39.9115 33.941 41.0135 32.8229C42.1156 31.7049 42.6667 30.3472 42.6667 28.75C42.6667 27.1209 42.1156 25.7552 41.0135 24.6531C39.9115 23.5511 38.5458 23 36.9167 23H36.725L38.6417 28.0792L35 29.4209L33.1792 24.3417C32.5403 24.8847 32.0451 25.5236 31.6937 26.2584C31.3424 26.9931 31.1667 27.8236 31.1667 28.75C31.1667 30.3472 31.7177 31.7049 32.8198 32.8229C33.9219 33.941 35.2875 34.5 36.9167 34.5Z" fill="#486284"/>
</g>
</svg>
